<?xml version="1.0" standalone="no"?>
<!DOCTYPE svg PUBLIC "-//W3C//DTD SVG 20010904//EN"
 "http://www.w3.org/TR/2001/REC-SVG-20010904/DTD/svg10.dtd">
<svg version="1.0" xmlns="http://www.w3.org/2000/svg"
 width="882.000000pt" height="882.000000pt" viewBox="0 0 882.000000 882.000000"
 preserveAspectRatio="xMidYMid meet">
<metadata>
Created by potrace 1.14, written by Peter Selinger 2001-2017
</metadata>
<g transform="translate(0.000000,882.000000) scale(0.100000,-0.100000)"
fill="#000000" stroke="none">
<path d="M369 8556 c-3 -3 -19 -8 -37 -11 -18 -3 -41 -9 -50 -14 -9 -5 -34
-17 -56 -27 -52 -26 -138 -113 -169 -172 -62 -118 -57 144 -54 -3272 2 -1713
6 -3124 8 -3135 8 -31 55 -128 75 -153 52 -65 136 -132 167 -132 9 0 17 -4 17
-9 0 -5 21 -15 48 -22 38 -10 337 -13 1534 -14 819 -1 1490 -4 1493 -7 5 -4 8
-665 6 -973 l-1 -80 -202 -1 c-112 0 -216 -4 -233 -7 -51 -11 -101 -85 -92
-137 6 -37 30 -78 53 -90 13 -8 24 -17 24 -22 0 -13 2965 -10 3010 3 52 16 91
77 85 131 -6 47 -26 80 -63 104 -24 16 -54 18 -244 18 -211 1 -218 2 -219 21
-4 94 1 1029 5 1033 4 3 675 6 1494 7 1274 2 1527 5 1527 15 0 1 7 3 16 5 48
9 157 77 185 115 7 8 22 26 34 40 24 27 64 109 77 156 4 16 7 1440 8 3164 l0
3135 -40 80 c-46 92 -109 159 -196 205 -32 17 -59 28 -59 24 0 -3 -7 0 -17 7
-13 12 -652 14 -4073 17 -2231 1 -4059 0 -4061 -2z"/>
</g>
</svg>
