<svg xmlns="http://www.w3.org/2000/svg" width="787" height="901" preserveAspectRatio="none" style="display:block" viewBox="0 0 1789 2048"><defs><linearGradient id="n" x1="1282.68" x2="1270.64" y1="1306.76" y2="1308.48" gradientUnits="userSpaceOnUse"><stop class="stop0" offset="0" stop-color="#c69368"/><stop class="stop1" offset="1" stop-color="#ac7a52"/></linearGradient><linearGradient id="m" x1="1433.14" x2="1470.03" y1="1409.52" y2="1409.41" gradientUnits="userSpaceOnUse"><stop class="stop0" offset="0" stop-color="#4e86b7"/><stop class="stop1" offset="1" stop-color="#5aa7de"/></linearGradient><linearGradient id="l" x1="1421.21" x2="1284.3" y1="347.572" y2="485.928" gradientUnits="userSpaceOnUse"><stop class="stop0" offset="0" stop-color="#7a4924"/><stop class="stop1" offset="1" stop-color="#a3613a"/></linearGradient><linearGradient id="k" x1="1409.53" x2="1451.68" y1="1439.24" y2="1437.34" gradientUnits="userSpaceOnUse"><stop class="stop0" offset="0" stop-color="#090d0c"/><stop class="stop1" offset="1" stop-color="#171d2a"/></linearGradient><linearGradient id="j" x1="1284.91" x2="1449.18" y1="1464.96" y2="1421.49" gradientUnits="userSpaceOnUse"><stop class="stop0" offset="0" stop-color="#41678d"/><stop class="stop1" offset="1" stop-color="#529ed6"/></linearGradient><linearGradient id="i" x1="759.018" x2="1150.73" y1="1545.12" y2="1363.66" gradientUnits="userSpaceOnUse"><stop class="stop0" offset="0" stop-color="#f7ad7b"/><stop class="stop1" offset="1" stop-color="#f9cc9e"/></linearGradient><linearGradient id="h" x1="598.149" x2="856.641" y1="755.163" y2="656.225" gradientUnits="userSpaceOnUse"><stop class="stop0" offset="0" stop-color="#ad6e43"/><stop class="stop1" offset="1" stop-color="#d8aa7b"/></linearGradient><linearGradient id="g" x1="1229.81" x2="1273.19" y1="162.902" y2="202.098" gradientUnits="userSpaceOnUse"><stop class="stop0" offset="0" stop-color="#915b3c"/><stop class="stop1" offset="1" stop-color="#b37c4b"/></linearGradient><linearGradient id="f" x1="1305.48" x2="1300.13" y1="218.743" y2="167.341" gradientUnits="userSpaceOnUse"><stop class="stop0" offset="0" stop-color="#b57544"/><stop class="stop1" offset="1" stop-color="#d59f69"/></linearGradient><linearGradient id="e" x1="873.329" x2="873.639" y1="231.091" y2="158.422" gradientUnits="userSpaceOnUse"><stop class="stop0" offset="0" stop-color="#a67146"/><stop class="stop1" offset="1" stop-color="#d5a372"/></linearGradient><linearGradient id="d" x1="524.694" x2="529.376" y1="1258.11" y2="1257.99" gradientUnits="userSpaceOnUse"><stop class="stop0" offset="0" stop-opacity=".988"/><stop class="stop1" offset="1" stop-color="#30170b"/></linearGradient><linearGradient id="c" x1="380.754" x2="1452.33" y1="1109.88" y2="373.883" gradientUnits="userSpaceOnUse"><stop class="stop0" offset="0" stop-color="#b97c4e"/><stop class="stop1" offset="1" stop-color="#d8aa78"/></linearGradient><linearGradient id="b" x1="1710.79" x2="1691.76" y1="1673.8" y2="1670.62" gradientUnits="userSpaceOnUse"><stop class="stop0" offset="0" stop-color="#000002"/><stop class="stop1" offset="1" stop-color="#141e26"/></linearGradient><linearGradient id="a" x1="1335.1" x2="664.497" y1="160.947" y2="2231.67" gradientUnits="userSpaceOnUse"><stop class="stop0" offset="0" stop-color="#0a0300"/><stop class="stop1" offset="1" stop-color="#0c131b"/></linearGradient></defs><path fill="url(#a)" d="M425.306 1247.36c-3.172-20.6 5.608-32.56 4.453-50.66-2.354-36.89-5.491-73.75-8.227-110.61-.677-9.12-.277-20.07-.673-29.54l-3.912-98.546c-.503-15.926-3.484-37.073-4.495-53.801l-10.223-184.714c-3.117-59.707-4.933-119.607-9.369-179.249-3.931-52.85-3.449-106.357-6.798-159.233a4471 4471 0 0 0-13.123-147.286c-2.104-18.32-5.77-34.936-8.379-52.989-.691-4.784 2.416-14.313 4.9-18.606 7.484-12.931 49.133-27.814 62.944-30.143 31.251-5.269 68.996-.893 100.571-.741l236.978 1.726c55.666-.065 111.292-7.788 166.991-8.023 12.276-.052 24.588 2.098 37.01 2.569l52.966 2.397c8.66.318 17.38.234 26.05.555 10.36.383 22.84 4.401 33 3.549 21.91-1.837 43.84-3.156 65.63-6.101 10.27-1.389 22.6.55 33.07-.588 15.39-.72 33.8-4.657 49.28-1.423 13.47 2.813 26.1-.018 39.06 2.208 22.34 3.84 53.5.136 72.99 11.634 6.97 4.111 10.34 19.193 16.86 24.469 18.1 17.879 32.01 24.929 41.57 49.961 9.06 23.721.16 29.445-5.61 50.891-3.78 18.92-4.29 38.668-5.55 57.89-.54 8.289-2.41 17.482-2.09 25.663.58 14.64-2.03 28.14-2.98 42.505l-6.53 104.191c-.71 12.194.01 24.376-.95 36.658-2.53 32.299-2.14 65.398-3.85 97.668a23540 23540 0 0 1-37.36 573.659c-.61 7.18 2.24 17.5 2.93 24.95.57 6.1.49 12.64-.02 18.75 46.89 2.87 96.19 31.62 116.17 76.89 5.83 13.2 6.17 21.98 19.65 30.89 16.51 12.17 24.08 22.04 27.74 42.53 14.26 7.91 29.76 14.63 43.87 22.52 28.19 15.76 57.24 31.17 85.21 47.3 39.6 22.82 89.35 47.25 118.69 82.83 13.96 16.92 23.68 43.58 35.25 63.44V2048H0v-470.37c8.993-9.23 17.427-14.09 27.029-22.07 45.44-37.77 98.015-67.2 148.576-97.68 16.446-9.92 46.776-28.42 63.265-35.6-4.834-47.35 18.251-51.54 51.591-70.11 3.61-2.01 15.115-29.95 18.891-34.64 32.31-47.39 62.9-61.56 115.954-70.17m103.748-55.25c-.56-2.77.161-2.09-1.438-3.17l-.331-1.08c-2.993 22.74-7.642 128.27 5.26 144.41 2.257-9.69-2.63-28.91-2.647-40.16-.052-33.33-.201-66.67-.844-100"/><path fill="#38404d" d="M561.164 1499.04c9.308 1.15 20.538 1.92 29.984 2.33 64.046 72.63 175.117 117.04 270.509 122.92a394.43 394.43 0 0 0 283.133-98.9c.97-.86 1.73-1.53 2.75-2.36.65 77.98-10.07 159.95-22.89 236.87-7.34 44.09-19.03 89.39-26.03 133.36l-1.27-.27c-7.89 48.91-13.4 99.66-21.33 147.28l-1.21 7.73H618.044c-1.206-8.13-1.153-20.77-1.383-29.25-.435-16-.873-31.22-1.946-47.19-.895-3.66-1.617-38.54-2.326-46.1-2.229-23.78-4.579-47.05-7.987-70.78-12.502-87.05-30.359-173.04-39.643-260.67-3.387-31.98-3.707-62.9-3.595-94.97"/><path fill="#ddd8bb" d="M748.88 1868.48c15.034-43.13 39.778-72.27 84.522-86.67a143.14 143.14 0 0 1 108.588 9c35.373 18.49 52.721 44.66 64.4 81.43 34.5-8.97 65.05-5.62 90.96 20.75-7.89 48.91-13.4 99.66-21.33 147.28l-1.21 7.73H618.044c-1.206-8.13-1.153-20.77-1.383-29.25-.435-16-.873-31.22-1.946-47.19-.005-5.03-.827-4.99 1.419-8.51 5.471-3.21 12.549-2.29 19.327-2.37-1.458-19.17-2.033-34.09 6.222-51.82a82.25 82.25 0 0 1 47.839-43.15c19.64-6.86 40.54-6.23 59.358 2.77"/><path fill="#9c9f96" d="M959.562 2048c26.321-8.8 33.424-15.78 48.198-38.45-.47 8.91-.61 18.54-.9 27.51 26.94 9.8 41.2 10.9 69.16 3.21l-1.21 7.73zM712.475 2011c21.098 21.39 33.098 27.15 61.978 37h-51.411c-6.232-13.65-8.986-22-10.567-37M908.083 2037.82c10.511 4.3 18.856 7.56 30.118 10.18h-57.462c9.133-3.34 18.248-6.74 27.344-10.18M817.386 1802.25l.107.95c-22.534 16.82-37.605 51.25-32.492 79.08 1.17 6.37 1.397 11.57 5.159 17.08l-.314 1.57c-10.821 1.26-17.24 1.13-26.845 6.55l-1.097.63-2.848 1.81c-.434-.42-1.146-1.03-1.25-1.65-7.845-47.05 17.327-87.01 59.58-106.02M672.558 1888.89l.907.96c-16.637 26.44-18.043 67.21 24.756 62.31-11.432 7.94-13.506 8.8-21.381 20.35-.935 1.94-.721 1.48-2.141 3.15-5.129-3.13-7.159-7.95-13.794-10.35-6.879-2.5-9.929-3.04-17.308-3.64-3.112-29.9.968-56.43 28.961-72.78"/><path fill="#38404d" d="M1476.87 1422.55c39.12 17.9 78.96 40.96 116.81 61.73 34.17 19.27 69.22 37.59 101.5 59.99 8.72 6.05 24.8 18.24 30.48 26.8 23.61 35.62 40.19 78.54 63.34 114.32V2048h-454.77c1.36-34.64 1.91-69.31 1.66-103.97-1.2-8.69-1.18-25.18-1.34-34.58-.26-17.8-.69-35.59-1.28-53.38-1.59-48.94-5.44-107.57-5.21-155.64.61 3.45.69 7.49 3.15 9.36 3.77-5.21.57-42.94-.7-51.12 6.21-10.54 17.6-23.74 25.11-34.16 27.09-37.17 54.23-74.78 77.16-114.7 12.26-21.32 22.03-45.63 34.46-66.69z"/><path fill="#54a1de" d="M1476.87 1422.55c39.12 17.9 78.96 40.96 116.81 61.73 34.17 19.27 69.22 37.59 101.5 59.99 8.72 6.05 24.8 18.24 30.48 26.8 23.61 35.62 40.19 78.54 63.34 114.32v43.58c-15.94-28.41-31.04-57.27-47.89-85.25-7.06-11.73-14.96-23.12-21.61-34.96 3.44-9.61 6.45-17.79 9-27.7-5.93 8.81-9.18 15.34-12.9 25.2-13.22-12.48-30.51-45.19-41.17-52.75-31.18-22.08-76.91-45.54-111.1-63.77-31.65-16.87-64.86-30.09-96.09-46.62z"/><path fill="#0f141e" d="M1659.4 2036c.75-4.71 4-19.76 3.51-23.42-3.91-28.86-24.24-59.54-33.11-87.85-10.21-32.53-14.06-85.63-9.34-118.8 8.16 24.76 12.56 58.78 18.02 84.87 5.84 27.9 14.38 49.17 23.25 76.17 2.9 8.84 3.25 21.39 6.46 30.63l1.28-.8c2.69-7.24 2.83-13.62 4.58-21.19.12 15.83-1.82 49.37-14.65 60.39M1680.26 2026.26c22.21-37.92 43.08-110.81 53.14-154.2-.78 44.8-12.85 96.55-30.48 137.87-4.83 11.32-13.97 26.68-19.72 38.07h-16.92c1.06-7.7 11.45-34.39 14.85-42.37-.06 6.88-.35 13.77-.87 20.63"/><path fill="#130905" d="M1674.05 1975.61c5.63-51.85-4.79-92.51 1.78-142.1 7.24 43.99 11.01 88.97 10.12 133.57-.16 7.72-2.1 32.76-4.82 38.55-3.4 7.98-13.79 34.67-14.85 42.37h-9.94c.69-3.48 2.15-8.44 3.06-12 12.83-11.02 14.77-44.56 14.65-60.39"/><path fill="url(#b)" d="M1728.5 1581.06c-2.55 9.91-5.56 18.09-9 27.7-2.38 5.11-3.62 9.97-5.06 15.36-10.29 38.77-20.98 77.44-28.38 116.89-1.44 7.65-2.91 15.8-5.4 23.15-.63-48.78 6.5-72.17 21.9-117.66 3.71-10.98 10.14-28.14 12.76-39.03l.28-1.21c3.72-9.86 6.97-16.39 12.9-25.2"/><path fill="#130905" d="M1335.89 1944.03c.63-7.78.62-15.19.69-22.97a433 433 0 0 1 1.44 20.98l1.72 1.42c.67-6.16-1.33-19.71-.26-23.53 2.61 19.49 2.65 109.29-.71 128.07h-4.54c1.36-34.64 1.91-69.31 1.66-103.97"/><path fill="#2c3546" d="M180.266 1654.89c-3.258 19.04-8.397 39.49-12.371 58.58a1413 1413 0 0 0-11.465 66.01c-7.42 50.66-9.289 102.13-19.824 152.61-4.079 19.54-5.265 37.84-13.163 56.81l-1.394.95c-6.233-6.57-9.65-46.72-11.121-56.88-3.057-21.12-6.009-42.18-10.337-63.09-2.942-14.22-7.058-28.26-10.62-42.34-4.239-16.75-8.015-33.61-12.413-50.33-7.405-28.14-28.713-82.06-28.2-108.39.538-27.55 10.482-58.92 30.652-78.19 8.622-8.24 18.385-15.29 28.387-21.75 22.688-14.67 123.118-71.68 145.903-70.18 7.898.52 14.8 8.2 19.456 14.02 19.637 24.56 33.615 67.62 47.73 96.82 11.38 23.55 25.806 44.82 40.378 66.42-8.115 122.12-15.37 250.26-7.58 372.04H152.753c-14.981-36.52-10.172-40.52-1.891-78.94a807 807 0 0 0 7.822-41.68c2.339-14.88 4.034-30.13 5.509-45.11 7.046-71.54 13.708-142.99 16.203-214.86.156-4.47.533-8.01-.13-12.52"/><path fill="#fdfdfd" d="M425.306 1247.36c-3.172-20.6 5.608-32.56 4.453-50.66-2.354-36.89-5.491-73.75-8.227-110.61-.677-9.12-.277-20.07-.673-29.54l-3.912-98.546c-.503-15.926-3.484-37.073-4.495-53.801l-10.223-184.714c-3.117-59.707-4.933-119.607-9.369-179.249-3.931-52.85-3.449-106.357-6.798-159.233a4471 4471 0 0 0-13.123-147.286c-2.104-18.32-5.77-34.936-8.379-52.989-.691-4.784 2.416-14.313 4.9-18.606 7.484-12.931 49.133-27.814 62.944-30.143 31.251-5.269 68.996-.893 100.571-.741l236.978 1.726c55.666-.065 111.292-7.788 166.991-8.023 12.276-.052 24.588 2.098 37.01 2.569l52.966 2.397c8.66.318 17.38.234 26.05.555 10.36.383 22.84 4.401 33 3.549 21.91-1.837 43.84-3.156 65.63-6.101 10.27-1.389 22.6.55 33.07-.588 15.39-.72 33.8-4.657 49.28-1.423 13.47 2.813 26.1-.018 39.06 2.208 22.34 3.84 53.5.136 72.99 11.634 6.97 4.111 10.34 19.193 16.86 24.469 18.1 17.879 32.01 24.929 41.57 49.961 9.06 23.721.16 29.445-5.61 50.891-3.78 18.92-4.29 38.668-5.55 57.89-.54 8.289-2.41 17.482-2.09 25.663.58 14.64-2.03 28.14-2.98 42.505l-6.53 104.191c-.71 12.194.01 24.376-.95 36.658-2.53 32.299-2.14 65.398-3.85 97.668a23540 23540 0 0 1-37.36 573.659c-.61 7.18 2.24 17.5 2.93 24.95.57 6.1.49 12.64-.02 18.75 46.89 2.87 96.19 31.62 116.17 76.89 5.83 13.2 6.17 21.98 19.65 30.89 16.51 12.17 24.08 22.04 27.74 42.53 14.26 7.91 29.76 14.63 43.87 22.52 28.19 15.76 57.24 31.17 85.21 47.3 39.6 22.82 89.35 47.25 118.69 82.83 13.96 16.92 23.68 43.58 35.25 63.44v52.16c-9.94-15.55-22.24-38.52-30.36-55.53-16.22-33.99-26.2-53.78-58.9-75.75-31.21-20.34-64.59-39.48-97.47-57.05-39.43-21.07-80.59-46.11-121.25-64.36.87-37.22-12.32-28.14-32.35-51.03-7.46-10.33-10.27-24.57-16.58-35.44-26.04-44.86-79.76-61.67-129.04-54.68 5.45-10.07 12.6-19.99 17.38-30.11-6.4-32.98-4.43-43.51-1.57-76.59 1.85-21.65 3.39-43.32 4.64-65.02l20.98-313.595c.73-12.261 1.83-25.559 1.97-37.808.65-56.616 5.93-113.144 8.21-169.537 1.26-65.855 6.74-131.207 11.18-196.809 3.87-57.06.52-96.859 19.05-152.799-10.97-29.209-22.35-30.171-42.18-51.01-2.59-2.723-9.32-15.821-14.15-21.566-11.8-1.82-27.94-2.299-40.1-3.43-36.72-3.022-75.4-5.445-112.11-2.777-43.08 3.131-83.3 9.034-126.63 4.247-19.54-1.76-40.44-1.19-59.822-3.199-47.896-4.963-92.484-1.412-140.212 1.767a1526 1526 0 0 1-91.498 3.53c-69.226.532-139.045-2.337-208.31-1.969-53.761.285-116.502-11.385-163.031 21.222 5.055 15.218 5.926 28.007 8.031 43.784 3.212 24.062 6.038 49.395 7.382 73.668 1.354 28.33 7.929 57.501 8.892 85.718 1.284 37.627.781 75.015 2.648 112.71l19.781 360.717c2.197 42.084 5.266 84.122 7.528 126.179 1.397 25.987 1.156 51.867 2.879 77.987l6.28 88.86c1.405 19.85 2.998 39.8 3.127 59.71.085 13.08-3.753 24.99-7.361 37.43 4.459 6.39 16.318 19.15 22.005 25.84l-6.296 4.65c-59.554-7.46-104.705 12.49-136.153 65.11-6.84 11.44-11.015 24.85-18.683 35.88l-.796 1.13c-31.564 10.68-56.504 18.41-37.94 58.24-31.207 16.29-60.473 33.83-91.548 52.64-55.344 33.51-114.159 68.41-162.233 112.44-5.365 4.91-10.001 21.85-14.39 29.4v-50.73c8.993-9.23 17.427-14.09 27.029-22.07 45.44-37.77 98.015-67.2 148.576-97.68 16.446-9.92 46.776-28.42 63.265-35.6-4.834-47.35 18.251-51.54 51.591-70.11 3.61-2.01 15.115-29.95 18.891-34.64 32.31-47.39 62.9-61.56 115.954-70.17"/><path fill="#38404d" d="m1278.98 1726.14 8.05 321.86h-129.4c3.05-26.73 9.05-54.99 15.03-81.19 11.4-42.13 21.79-74.97 38.89-115.7 12.53-29.85 28.32-58.96 40.43-88.26 5.89-.23 9.73 6.63 13.02 11.18l-5.84 14.79 1.05 2.48 1.64.12c12.01-15.16 6.64-22.87-5.16-34.61 6.16-9.54 14.62-22.36 22.29-30.67"/><path fill="#fdfdfd" d="M1251.98 1762.85c5.89-.23 9.73 6.63 13.02 11.18l-5.84 14.79c-3.16 6.86-6.28 14.99-8.81 22.18-10.08 28.6-24.71 55.56-35.86 83.63-19.43 48.87-36.22 101.43-45.15 153.37h-11.71c3.05-26.73 9.05-54.99 15.03-81.19 11.4-42.13 21.79-74.97 38.89-115.7 12.53-29.85 28.32-58.96 40.43-88.26"/><path fill="#2c3546" d="M406.95 1758.35c1.163-5.1.216-5.13 3.38-7.29 7.764.87 17.34 16.32 22.235 22.82l-6.538 6.74c7.469 29.56 29.337 68.19 43.485 96.1 30.306 59.79 50.947 105.38 65.041 171.28h-129.37c-1.149-64.07-.171-128.29.174-192.42l.368-60.12c.089-10.45-.142-27.24 1.225-37.11M0 1759.58c6.797-21.5 10.486-49.47 16.787-71.71 11.354 32.99 20.302 66.92 30.998 99.47 21.009 63.94 41.962 124.95 46.935 192.66 1.214 16.53 5.02 33.53 5.516 50.65-24.784-34.31-44.984-71.86-63.732-109.74-7.565-15.28-13.809-32.34-20.486-48.16 4.05 56.95 35.244 130.15 69.53 175.25H0v-288.42"/><path fill="#0f141e" d="M0 1978.06c9.632 19.82 17.918 40.35 28.187 59.91 1.54 2.94 3.727 7.04 4.777 10.03H0v-69.94"/><path fill="#2c3546" d="M0 2021.68c6.203 9.25 11.866 17.41 18.532 26.32H0z"/><path fill="#38404d" d="m565.162 1697.02 2.357-4.57 1.005-.19c1.459 4.27.885 9.36 1.817 14.01 22.819 114.12 37.374 225.17 37.472 341.73h-30.558c-9.69-59.49-19.538-112.48-41.271-169.44-9.932-26.04-21.029-48.21-31.613-73.32 4.359-6.15-4.034-20.54-7.072-27.14-2.247.19-1.127.23-3.621-1.39l1.709-2.87c5.18-6.31 38.207-40.69 44.258-41.37l3.046-2.9c5.782-5.42 22.411-24.68 22.471-32.55"/><path fill="#130905" d="M495.387 1773.84c5.18-6.31 38.207-40.69 44.258-41.37-6.418 7.53-12.642 14.6-19.533 21.7-7.549 7.77-16.302 15.37-22.813 23.93-2.247.19-1.127.23-3.621-1.39z"/><path fill="#2c3546" d="M1188.78 1729.7c10.23 12.74 36.92 46.41 51.54 52.92 1.45-6.14-13.43-17.45-17.93-21.54-7.46-6.76-13.07-13.77-19.33-21.55-12.31-15.29-14.66-25.53-16.24-44.46 13.33 23.29 27.77 44.19 51.62 57.72 4.54 2.58 10.78 9.34 13.54 10.06-12.11 29.3-27.9 58.41-40.43 88.26-17.1 40.73-27.49 73.57-38.89 115.7l-.31-1.36c-1.81-1.4-2.97-1.46-5.25-2.15-2.74-6.07-.89-26.73-1.03-34.32-1.25-65.56 5.08-135.74 22.71-199.28"/><path fill="#fdfdfd" d="m1326.61 1665.94.29 9.72 1.16 24.77c-.23 48.07 3.62 106.7 5.21 155.64.59 17.79 1.02 35.58 1.28 53.38.16 9.4.14 25.89 1.34 34.58.25 34.66-.3 69.33-1.66 103.97h-23.7c-.68-66.23-.84-132.47-.48-198.71-.02-25.01-2.36-77.52.85-99.69-.33-17.64-3.39-39.79-4.02-59.33 6.56-8.52 12.49-16.36 19.73-24.33"/><path fill="#6c716f" d="M1310.53 2048c-.68-66.23-.84-132.47-.48-198.71-.02-25.01-2.36-77.52.85-99.69.21 5.58 2.38 32.23 4.97 35.06 1.58 43.03 1.28 87.06 1.4 130.2l.8 133.14z"/><path fill="#9c9f96" d="m1326.61 1665.94.29 9.72-1.74-.58c-12.83 13.54-10.71 51.42-11.32 69.25-.37 10.7 3.26 29.11 2.03 40.33-2.59-2.83-4.76-29.48-4.97-35.06-.33-17.64-3.39-39.79-4.02-59.33 6.56-8.52 12.49-16.36 19.73-24.33"/><path fill="#fdfdfd" d="M396.858 1673.02c7.04 5.57 9.017 7.86 11.183 16.41-.119 22.15-1.389 47.44-1.091 68.92-1.367 9.87-1.136 26.66-1.225 37.11l-.368 60.12c-.345 64.13-1.323 128.35-.174 192.42h-23.149c-.506-16.82-2.15-33.99 1.294-50.39-1.73-8.72-1.811-25.22-1.608-34.3 1.365-60.94 3.737-122.99 6.396-183.89 6.723-37.6 4.583-69.68 8.742-106.4"/><path fill="#6c716f" d="M383.328 1997.61c2.927 18.1 4.948 32.01 6.714 50.39h-8.008c-.506-16.82-2.15-33.99 1.294-50.39"/><path fill="#fdfdfd" d="M485.62 1756.8c4.491 5.7 6.113 11.27 9.767 17.04l-1.709 2.87c2.494 1.62 1.374 1.58 3.621 1.39 3.038 6.6 11.431 20.99 7.072 27.14 10.584 25.11 21.681 47.28 31.613 73.32 21.733 56.96 31.581 109.95 41.271 169.44h-11.876c-6.649-55.32-26.962-117.12-48.847-168.3-13.161-30.78-37.94-80.52-46.425-112.06 2.691-3.56 6.457-9.42 10.946-9.8 2.479.23 2.322.13 4.567-1.04"/><path fill="#0f141e" d="M485.62 1756.8c4.491 5.7 6.113 11.27 9.767 17.04l-1.709 2.87c2.494 1.62 1.374 1.58 3.621 1.39 3.038 6.6 11.431 20.99 7.072 27.14-4.417-8-9.089-17.83-13.266-26.1-3.526-6.8-6.828-14.31-10.052-21.3 2.479.23 2.322.13 4.567-1.04"/><path fill="#6c716f" d="m1097.35 1892.99 1.27.27c15.4 22.46 18.52 32.64 18.19 60.06-.06 5.13 4.14.76 3.88 6.22-1 21.26-3.4 44.24-4.75 65.47l-.39 22.99h-40.74l1.21-7.73c7.93-47.62 13.44-98.37 21.33-147.28"/><path fill="#545c5c" d="M1076.02 2040.27c6.84-1.96 31.3-12.04 39.92-15.26l-.39 22.99h-40.74z"/><path fill="#2c3546" d="M485.62 1756.8c1.881-3.99 14.278-10.27 18.765-13.68 35.347-26.84 47.772-47.13 59.95-87.64.656 10.08 3.685 20.58 1.926 30.59-.495 2.82-2.202 5.87-3.04 9.25l1.941 1.7c-.06 7.87-16.689 27.13-22.471 32.55l-3.046 2.9c-6.051.68-39.078 35.06-44.258 41.37-3.654-5.77-5.276-11.34-9.767-17.04"/><path fill="#9c9f96" d="M387.076 1638.74c7.339 9.24 14.294 18.01 21.211 27.57-.502 6.69-.234 16.23-.246 23.12-2.166-8.55-4.143-10.84-11.183-16.41-4.159 36.72-2.019 68.8-8.742 106.4-3.298-24.43-2.268-51.35-1.8-76.14z"/><path fill="#130905" d="M561.164 1499.04c.207-9.39.893-24.63 2.631-33.92 8.553 17.31 20.569 24.92 27.353 36.25-9.446-.41-20.676-1.18-29.984-2.33"/><path fill="url(#c)" d="M441.055 163.177c10.302.492 21.308-.548 31.706-.928a824 824 0 0 1 40.513-.139c50.007 1.256 99.158 3.506 149.28 1.986 15.599-.473 34.221 1.247 50.302 1.667 69.12 1.805 137.55-4.753 206.362-7.874 38.931-1.766 81.362 4.562 120.522 4.953 46.64 4.215 85.3 1.126 131.7-3.3 40.47-3.86 83.36-.566 123.89 3.504l4.75-.35c7.18.37 16.53.632 23.32 2.265 6.17 2.696 8.09 12.98 13.24 19.274 8.22 10.046 20.79 16.644 28.36 26.414 4.94 7.115 8.11 12.039 11.75 19.95-5.72 13.876-14.71 28.361-19.48 41.224-19.64 52.983-37.75 119.279-48.9 175.029-1.93 9.548-3.8 19.107-5.6 28.679 2.68-1.576 3.1-4.432 4.53-7.892.13 2.641.09 3.593.72 6.189 3.76 2.805 2.04 1.148 7.42 1.826.14 2.287.38 3.925-.08 6.192 14.97 25.921 22.95 47.814 31.64 76.402-.16 36.67-4.61 75.259-5.97 112.011-2.43 65.494-3.91 131.958-10.2 197.239.02 13.285-1.53 29.075-2.21 42.488-2.24 44.083-7.87 88.204-10.17 132.244-1.12 28.12-2.68 55.7-4.32 83.76-2.04 34.96-9.06 70.04-4.13 104.55.43 1.62 1.89 7.04 1.38 8.29-6.19 15.19-15.56 28.25-22.21 43.87-3.46 2.73-5.41 5.96-6.33 10.32.02-3.01.28-6.81-.6-9.56-2.86 8.19-6.46 10.48-8.51 16.18-.15 2.92.05 8.75-1.53 10.75l-1.18-1.21c-.62 6.41.98 13.07 2.9 19.17-1.21 2.94-2.26 6.63-4.74 8.29-12.14 2.08-27.64 1.62-40.17 2.32-62.15 3.45-124.72 9.79-186.86 12.87a2629 2629 0 0 1-157.08 2.75c-16.968-.12-33.724.78-50.72.21-51.984-1.73-103.253-8.55-154.74-12.81-49.381-3.9-98.892-5.91-148.426-6.05-4.313-.88-10.782-12.55-13.884-16.15-21.298-24.69-40.353-55.01-61.919-78.93 12.681-42.77-.163-132.19-2.899-179.31l-10.578-195.436-19.544-361.935a1279 1279 0 0 1-2-65.185c-.071-17.691.609-42.561-.832-59.553-3.341-39.39-9.306-79.519-12.307-119.028-.853-11.233-3.708-28.599-3.539-38.923l.676 2.43.973.253c7.317 10.116 13.149 35.334 18.086 49.082 6.294 17.526 10.389 28.192 18.126 45.408 3.51-3.564 2.2-18.199 3.798-23.853 1.994-7.054 5.258-8.868 8.154-14.835.338-.697.683-9.644.994-12.08.918 51.737 7.23 105.427 16.52 156.246 1.096 5.996 2.022 12.071 2.976 18.095a3580 3580 0 0 1 17.339 123.839c2.392 20.924 4.518 41.714 6.266 62.694.747 8.972.357 35.73 3.855 42.569 1.382-9.862.244-32.643.649-44.431-.001-20.757-5.078-50.737-7.264-71.692-6.151-58.949-17.187-117.933-24.383-176.603a1280 1280 0 0 1-6.681-73.49c-1.435-20.874-3.294-50.808-7.58-70.964-2.97-3.453-6.329-6.532-9.616-9.694-17.622-14.468-31.726-30.842-50.347-45.397 4.439-2.15 8.988-3.86 13.573-5.676 11.188-4.77 19.109-9.008 31.259-10.204m87.999 1028.933c-.56-2.77.161-2.09-1.438-3.17l-.331-1.08c-2.993 22.74-7.642 128.27 5.26 144.41 2.257-9.69-2.63-28.91-2.647-40.16-.052-33.33-.201-66.67-.844-100"/><path fill="url(#d)" d="M532.545 1332.27c-12.902-16.14-8.253-121.67-5.26-144.41l.331 1.08c1.599 1.08.878.4 1.438 3.17.643 33.33.792 66.67.844 100 .017 11.25 4.904 30.47 2.647 40.16"/><path fill="#603218" d="M455.381 1240.85c12.681-42.77-.163-132.19-2.899-179.31l-10.578-195.436-19.544-361.935a1279 1279 0 0 1-2-65.185c-.071-17.691.609-42.561-.832-59.553-3.341-39.39-9.306-79.519-12.307-119.028-.853-11.233-3.708-28.599-3.539-38.923l.676 2.43.973.253c7.317 10.116 13.149 35.334 18.086 49.082 6.294 17.526 10.389 28.192 18.126 45.408 3.51-3.564 2.2-18.199 3.798-23.853 1.994-7.054 5.258-8.868 8.154-14.835.338-.697.683-9.644.994-12.08.918 51.737 7.23 105.427 16.52 156.246 1.096 5.996 2.022 12.071 2.976 18.095a3580 3580 0 0 1 17.339 123.839c2.392 20.924 4.518 41.714 6.266 62.694.747 8.972.357 35.73 3.855 42.569 1.382-9.862.244-32.643.649-44.431 2.172 13.404.125 27.185 1.283 39.701 2.891 31.225 5.585 65.383 3.528 96.862l.228 10.524c1.403 6.372 5.149 48.314 4.583 53.722a1323 1323 0 0 1 5.407 114.109c1.165 11.521 1.057 25.613.805 37.279-.928 42.886 1.456 85.136 5.017 127.866 2.294 27.53 6.99 57.56 6.109 85.15-.56-2.77.161-2.09-1.438-3.17l-.331-1.08c-2.993 22.74-7.642 128.27 5.26 144.41-.597 1.39-1.11 2.23-1.361 3.66-4.313-.88-10.782-12.55-13.884-16.15-21.298-24.69-40.353-55.01-61.919-78.93"/><path fill="#130905" d="M513.112 993.741a7834 7834 0 0 0-5.193-144.578c-.355-8.431 2.506-15.979 1.822-23.162l.968-.408-.539-1.103c.472 1.515.697 1.962 1.546 3.216a1323 1323 0 0 1 5.407 114.109c-1.044 22.228-.099 47.743-.291 70.265-2.32-9.03-2.67-8.81-3.72-18.339M507.133 773.984c-1.098-4.012-2.962-5.703-3.721-10.566-1.239-7.939-3.514-40.304.875-46.609 3 5.271 1.699 36.386 2.508 45.475l.11 1.176z"/><path fill="#1c0c04" d="M513.112 993.741c1.05 9.529 1.4 9.309 3.72 18.339.13 4.28.806 14.67-1.596 17.9l.149 1.05-.23-.05.689-1.2-1.069-.65c-1.492-10.3-2.015-25.05-1.663-35.389"/><path fill="#130905" d="M467 635.5c2.85 8.381 8.794 260.418 6.59 271.413-3.521-8.269-3.42-66.093-3.743-78.368-1.087-41.348-3.539-84.093-2.871-125.452.289-17.874-2.476-51.309.024-67.593M483.509 1087.93c3.847 5.24 8.286 158.22 6.959 172.82-2.516-4-7.162-118.74-7.428-133.54a808 808 0 0 1 .469-39.28M442.836 364.584c3.163 7.123 8.494 79.973 7.643 91.028-3.928-8.174-8.858-79.611-7.643-91.028"/><path fill="url(#e)" d="M441.055 163.177c10.302.492 21.308-.548 31.706-.928a824 824 0 0 1 40.513-.139c50.007 1.256 99.158 3.506 149.28 1.986 15.599-.473 34.221 1.247 50.302 1.667 69.12 1.805 137.55-4.753 206.362-7.874 38.931-1.766 81.362 4.562 120.522 4.953 46.64 4.215 85.3 1.126 131.7-3.3 40.47-3.86 83.36-.566 123.89 3.504l4.75-.35c7.18.37 16.53.632 23.32 2.265 6.17 2.696 8.09 12.98 13.24 19.274 8.22 10.046 20.79 16.644 28.36 26.414-4.79 2.316-9.92 5.314-15.13 5.593l-3.38 3.309-1.15-.024.02-.582-5.87 1.338c2.65 2.023 8.18 2.966 11.61 3.818 1.44.294 1.26.387 2.59 1.169-13.38 12.136-129.38-6.398-151.08-4.455-50.49 4.522-101.47 1.847-151.53 3.052-14.52-1.192-29.9-.813-44.5-1.202-22.388-.597-44.949 4.572-67.152 6.975-27.816 2.974-56.473 4.67-84.462 3.312-6.545.098-13.146-1.091-21.55-.848-11.712-1.39-24.95-.084-35.549-1.965-4.035-.043-6.117-.443-10.14-1.104-18.182-.356-43.001-7.171-60.029-7.087-25.713.127-52.295 5.298-79.009 5.496-44.948.334-89.521-1.55-134.427-.422-8.485-.53-35.219 1.298-41.204-1.558l2.769-1.716c-3.107-.55-1.82.156-3.947-2.266l-.62.179.889 1.155-1.36-1.329 3.444-2.098.432-1.803c-7.498 2.228-11.252 4.226-18.711 2.514-2.833-.715-4.825-2.287-7.361-3.865 3.935 4.4 5.234 5.4 5.079 11.037-4.873-2.429-4.851-9.352-10.159-11.867 1.632 3.733 2.431 5.096 3.057 9.049-17.622-14.468-31.726-30.842-50.347-45.397 4.439-2.15 8.988-3.86 13.573-5.676 11.188-4.77 19.109-9.008 31.259-10.204"/><path fill="#b3794c" d="M409.796 173.381c11.188-4.77 19.109-9.008 31.259-10.204l2.903 1.022c12.028.689 23.293 1.149 35.221 2.875l.074 2.913c-1.043.608-1.861 1.143-2.966 1.624 19.364 3.776 38.53 7.982 57.95 11.732 17.926 3.462 42.444 5.975 59.477 10.549-13.054 2.771-25.419 5.462-38.518 7.289-23.002 3.207-82.94 5.2-99.242 18.919-2.833-.715-4.825-2.287-7.361-3.865 3.935 4.4 5.234 5.4 5.079 11.037-4.873-2.429-4.851-9.352-10.159-11.867 1.632 3.733 2.431 5.096 3.057 9.049-17.622-14.468-31.726-30.842-50.347-45.397 4.439-2.15 8.988-3.86 13.573-5.676"/><path fill="#9c633b" d="M396.223 179.057c4.439-2.15 8.988-3.86 13.573-5.676 7.003 9.468 17.915 19.179 24.823 29.499 1.454 2.173 7.657 11.747 8.894 12.525 1.632 3.733 2.431 5.096 3.057 9.049-17.622-14.468-31.726-30.842-50.347-45.397"/><path fill="#1c0c04" d="M443.958 164.199c12.028.689 23.293 1.149 35.221 2.875l.074 2.913c-1.043.608-1.861 1.143-2.966 1.624-7.015-1.201-32.071-2.465-35.233-5.794zM1185.64 215.131l2.52-2.078c38.45-1.766 77.37 5.749 115.88 6.661l.74-1.356 13.49-.117c4.62 2.461 22.42-2.074 28.4-3.206l3.2 1.207-3.38 3.309-1.15-.024.02-.582-5.87 1.338c2.65 2.023 8.18 2.966 11.61 3.818 1.44.294 1.26.387 2.59 1.169-13.38 12.136-129.38-6.398-151.08-4.455-50.49 4.522-101.47 1.847-151.53 3.052-14.52-1.192-29.9-.813-44.5-1.202-22.388-.597-44.949 4.572-67.152 6.975-27.816 2.974-56.473 4.67-84.462 3.312 6.01-2.345 47.052-5.412 56.603-6.423a685 685 0 0 0 44.146-5.969c9.475-1.55 31.229-5.632 39.888-5.389 15.607.437 32.347 1.569 48.207 2.037 29.81.72 59.64.962 89.46.725 11.73-.039 41.38-.237 52.37-2.802"/><path fill="#b3794c" d="m1185.64 215.131 2.52-2.078c38.45-1.766 77.37 5.749 115.88 6.661l.74-1.356 13.49-.117c4.62 2.461 22.42-2.074 28.4-3.206l3.2 1.207-3.38 3.309-1.15-.024.02-.582-5.87 1.338c2.65 2.023 8.18 2.966 11.61 3.818-54.53-.977-111.51-10.665-165.46-8.97"/><path fill="url(#f)" d="M1323.4 164.961c6.17 2.696 8.09 12.98 13.24 19.274 8.22 10.046 20.79 16.644 28.36 26.414-4.79 2.316-9.92 5.314-15.13 5.593l-3.2-1.207c-5.98 1.132-23.78 5.667-28.4 3.206-8.98-7.902-8.85-5.012-20.4-7.231-8.18-.376-17.74-1.515-26.2-2.045a331 331 0 0 0-15.65-2.09q-3.36-.66-6.69-1.414l-4.66-3.642.32-1.076c22.86-11.428 46.88-20.371 68.22-35.033.99-.681 8.28-.704 10.19-.749"/><path fill="#9c633b" d="M1297.87 211.01c10.23.049 40.05 1.09 48.8 4.025-5.98 1.132-23.78 5.667-28.4 3.206-8.98-7.902-8.85-5.012-20.4-7.231"/><path fill="#430d07" d="M479.179 167.074c17.901 1.752 33.72 6.079 50.758 8.73 44.527 6.928 79.668 13.093 120.688 33.816-13.273-1.268-24.804-3.992-37.043-8.784-17.108-6.698-39.353 2.074-57.373 6.408-18.504 4.45-67.506 3.275-81.544 10.342-7.498 2.228-11.252 4.226-18.711 2.514 16.302-13.719 76.24-15.712 99.242-18.919 13.099-1.827 25.464-4.518 38.518-7.289-17.033-4.574-41.551-7.087-59.477-10.549-19.42-3.75-38.586-7.956-57.95-11.732 1.105-.481 1.923-1.016 2.966-1.624zM475.827 223.748c9.105.23 18.907-.804 28.116-1.32 72.022-4.034 141.807 7.438 213.369-6.27 11.639-2.23 71.665 8.111 86.459 11.164-4.149 2.185-10.739 1.004-16.044 1.713-18.182-.356-43.001-7.171-60.029-7.087-25.713.127-52.295 5.298-79.009 5.496-44.948.334-89.521-1.55-134.427-.422-8.485-.53-35.219 1.298-41.204-1.558z"/><path fill="url(#g)" d="M1300.08 162.696c7.18.37 16.53.632 23.32 2.265-1.91.045-9.2.068-10.19.749-21.34 14.662-45.36 23.605-68.22 35.033l-.32 1.076 4.66 3.642c-6.1-.166-48.18-5.98-50.32-9.093 15.56-1.388 94.61-22.307 101.07-33.672"/><path fill="#1c0c04" d="m1295.33 163.046 4.75-.35c-6.46 11.365-85.51 32.284-101.07 33.672-4.12-.292-3.66-.943-6.41.851-.22 2.148-.33 1.362.33 3.406-2.55-.234-5.7-.958-8.29-1.466-14.37 5.351-20.1 10.184-35.98 12.93 22.65-17.292 44.91-20.298 71.17-26.594 13.6-3.356 27.16-6.838 40.69-10.445 9.6-2.566 26.1-7.425 34.81-12.004"/><path fill="#744524" d="M1271.67 208.965c8.46.53 18.02 1.669 26.2 2.045 11.55 2.219 11.42-.671 20.4 7.231l-13.49.117c-8.53-1.071-33.41-3.239-40.18-5.297 2.6-.471 6.92-.846 8.61-2.502z"/><path fill="#130905" d="M1192.93 200.625c-.66-2.044-.55-1.258-.33-3.406 2.75-1.794 2.29-1.143 6.41-.851 2.14 3.113 44.22 8.927 50.32 9.093q3.33.754 6.69 1.414c-5.11 1.495-19.92.666-26.08 1.359-9.94-1.044-27.17-5.324-37.01-7.609"/><path fill="#430d07" d="M1256.02 206.875a331 331 0 0 1 15.65 2.09l1.54 1.594c-1.69 1.656-6.01 2.031-8.61 2.502-9.96-.972-25.04-2.49-34.66-4.827 6.16-.693 20.97.136 26.08-1.359"/><path fill="#603218" d="M803.771 227.322c6.925.55 11.637 1.144 18.487 2.314-8.122.472-16.258.64-24.391.503-4.035-.043-6.117-.443-10.14-1.104 5.305-.709 11.895.472 16.044-1.713"/><path fill="#e4bc90" d="M1365 210.649c4.94 7.115 8.11 12.039 11.75 19.95-5.72 13.876-14.71 28.361-19.48 41.224-19.64 52.983-37.75 119.279-48.9 175.029-1.73-3.227-.67-5.394-.21-9.708-2.44-1.676-1-1.092-5.01-.476q-.735 5.08-1.23 10.19c-4.76-41.516 25.58-123.49 40.63-162.529 4.17-10.816 18.44-36.569 19.87-47.062-2.61-2.568-8.15-1.059-11.64-.777-54.28 4.683-109.73-3.473-163.87 1.901-49.07 4.871-91.88 5.073-140.72-1.833 5.6-1.097 18.23 1.729 22.39.27-1.58-2.853-13.54-11.37-16.35-11.499-12.69-.58-25.15.166-38.01-.619 7.29-1.599 27.42.195 36.86-.843 50.06-1.205 101.04 1.47 151.53-3.052 21.7-1.943 137.7 16.591 151.08 4.455-1.33-.782-1.15-.875-2.59-1.169-3.43-.852-8.96-1.795-11.61-3.818l5.87-1.338-.02.582 1.15.024 3.38-3.309c5.21-.279 10.34-3.277 15.13-5.593M1311.95 483.447c1.57-1.458 1.07-.948 3.41-1.601 14.97 25.921 22.95 47.814 31.64 76.402-.16 36.67-4.61 75.259-5.97 112.011-2.43 65.494-3.91 131.958-10.2 197.239-.61-4.63-.45-6.21-3.12-9.963-3.43-1.763-1.64-1.443-5.6-.794.05 3.825-.02 6.439-.34 10.25-1.55-13.435-.72-31.217-.33-45.027.85-32.913 2.99-65.779 6.4-98.526 1.63-15.927 4.55-34.227 4.97-50.062-.24-10.339-1.46-20.771-1.88-31.091-1.21-34.315-5.47-67.977-10.45-101.894-2.73-18.531-6.87-38.437-8.53-56.944M514.262 227.022c44.906-1.128 89.479.756 134.427.422 26.714-.198 53.296-5.369 79.009-5.496 17.028-.084 41.847 6.731 60.029 7.087 4.023.661 6.105 1.061 10.14 1.104 10.599 1.881 23.837.575 35.549 1.965 3.196.989 14.97 1.784 18.909 2.133-38.349 6.674-73.76-.092-111.984-.182-22.463-.052-47.095 11.149-69.435 12.936-7.008.561-30.858-.025-37.109-.509-15.37-1.19-126.883-12.824-132.092-15.472 4.003-.623 12.865 1.845 19.18 1.698l.995-1.359-.507-1.484c-2.789-1.746-13.23-.951-17.208-.863 1.096-.967 8.051-1.669 10.097-1.98M1288.83 1241.13c1.99-4.98 3.08-31.51 3.5-38.17l.39 1.86c-1.19-29.83 1.87-45.18 5.11-74.78 2.99-27.37 4.97-55.07 9.89-82.26.3 1.49-.8 15.28-1.15 17.46l-.14.81 3.09-1.43c2.55.49 2.5.54 5.07.27 3.13-5.04.41-18.17 2.66-26.89l1.2 4.23c-1.12 28.12-2.68 55.7-4.32 83.76-2.04 34.96-9.06 70.04-4.13 104.55-.34 5.09-.37 11.65-3.98 15.32-3.44-1.96-4.25-3.36-7.35-2.51-2.95.81-6.95 3.8-9.06 3.02z"/><path fill="#b3794c" d="M1273.73 1299.64c-.5-33.6-1.2-67.19-2.1-100.78-.4-16.31-1.82-52.76.21-67.38.49 6.38-.9 6.09 4.74 10.57 10.45 8.31 11.45 27.89 14.56 40.22 2 14.01-4.48 44.19-3.24 58.81l.93.05.78 5.24c2.11.78 6.11-2.21 9.06-3.02 3.1-.85 3.91.55 7.35 2.51 3.61-3.67 3.64-10.23 3.98-15.32.43 1.62 1.89 7.04 1.38 8.29-6.19 15.19-15.56 28.25-22.21 43.87-3.46 2.73-5.41 5.96-6.33 10.32.02-3.01.28-6.81-.6-9.56-2.86 8.19-6.46 10.48-8.51 16.18"/><path fill="#ce9c6f" d="M1310 1230.54c.43 1.62 1.89 7.04 1.38 8.29-6.19 15.19-15.56 28.25-22.21 43.87-3.46 2.73-5.41 5.96-6.33 10.32.02-3.01.28-6.81-.6-9.56.21-2.32 2.38-11.1 2.91-14.58 1.48-9.59 2.08-18.13 2.75-27.8l.93.05.78 5.24c2.11.78 6.11-2.21 9.06-3.02 3.1-.85 3.91.55 7.35 2.51 3.61-3.67 3.64-10.23 3.98-15.32"/><path fill="#130905" d="M1285.22 772.609c3.27 5.698.84 12.518 1.89 20.639-.83 44.224-4.45 88.394-6.76 132.544-3.28 62.9-3.52 126.028-7.48 188.888-.35 5.53-.89 11.29-1.03 16.8-2.03 14.62-.61 51.07-.21 67.38.9 33.59 1.6 67.18 2.1 100.78-.15 2.92.05 8.75-1.53 10.75l-1.18-1.21c-1.13-51.96-5.56-105.39-5.8-157.44-.08-17.48 2.08-38.18 3.04-55.94l4.81-99.838 7.51-146.092c1.37-24.719 1.83-52.94 4.64-77.261"/><path fill="#b3794c" d="M1307.3 467.639c.13 2.641.09 3.593.72 6.189 3.76 2.805 2.04 1.148 7.42 1.826.14 2.287.38 3.925-.08 6.192-2.34.653-1.84.143-3.41 1.601-2.8 2.231-6.59 4.492-9.66 6.455-.73-5.526-1.81-9.456.48-14.371 2.68-1.576 3.1-4.432 4.53-7.892"/><path fill="#1c0c04" d="M1289.33 736.201c.78 8.344-.78 49.369-2.22 57.047-1.05-8.121 1.38-14.941-1.89-20.639.19-10.621 1.58-26.141 4.11-36.408"/><path fill="#130905" d="M676.972 595.855c16.599.999 21.497-15.38 48.018-16.573 24.232-1.089 52.851 25.8 58.618 26.429 2.394.53 4.217 1.032 6.691 1.123a345 345 0 0 1 45.688 11.193c14.839 4.772 35.627 12.318 50.186 16.045 16.257 4.161 51.048 5.577 67.42 2.576 9.044-1.658 28.576-8.422 38.227-11.43a335 335 0 0 1 53.36-12.485c2.78-3.497 3.49-4.16 4.52-8.453l-.65-.059-.39-1.5 2.19-1.854c1.21-.034 2.44.038 3.55-.246 21.99-11.733 42.82-26.663 69.27-18.346 16.84 5.294 24.6 14.845 38.17 25.017 1.75 1.309 2.37.845 4.19.542 1.39-1.622 1.82-2.22 3.55-3.469 1.22 1.128 2.17 2.004 3.32 3.205 27.33 2.571 91.37 11.426 114.31 25.266l.94.561c.11 16.382-.34 31.121-1.06 47.483-26.88 13.487-24.09 17.982-28.13 46.996-10.52 75.588-21.58 91.064-95.55 102.454 11.6 22.604 1.68 49.841-3.9 74.504-.02-5.604-.21-23.248.41-28.324-1.48-20.473-2.64-29.244-17.17-44.139-35.73-.1-75.83-.563-110.26-12.46-38.275-13.183-55.047-52.282-68.442-87.197-6.151-16.035-9.713-39.608-26.731-47.45-12.349-5.691-41.18-6.206-49.147 6.934-4.095 6.755-8.451 21.418-11.336 29.345a349 349 0 0 1-12.464 30.191c-13.779 29.181-32.007 54.639-64.765 64.641-56.713 16.149-129.498 13.847-184.121-8.476-34.465-14.085-36.922-65.562-40.377-97.471-3.242-29.942 1.903-29.862-26.734-43.41-.732-15.531-.597-32.201-.736-47.827 21.781-9.274 49.028-14.717 72.272-19.22 17.079-3.308 34.792-3.655 52.111-4.279l1.989-1.31z"/><path fill="#1c0c04" d="m1159.03 830.822 4.38-.492c11.6 22.604 1.68 49.841-3.9 74.504-.02-5.604-.21-23.248.41-28.324 1.73-1.849 1.9-1.953 2.38-4.478l1.18-6.281c4.18-10.802-.07-24.872-4.45-34.929"/><path fill="#b3794c" d="M1159.03 830.822c4.38 10.057 8.63 24.127 4.45 34.929-4.9-18.832-1.72-18.36-16.02-34.265z"/><path fill="url(#h)" d="M657.282 617.402c3.763-.478 4.401-.498 8.167-.185.349 1.843-11.53 23.272-13.454 28.943-10.697 31.534-18.648 66.45-3.672 97.947 11.31 23.785 27.201 41.984 52.252 50.871 19.859 7.046 37.609 7.035 56.613-1.884 26.86-12.606 43.85-36.193 53.224-63.819 12.239-36.066 5.27-68.019-11.081-101.039 22.548 6.653 53.635 14.509 63.402 38.104 9.045 33.448-21.969 93.144-41.257 120.838-10.245 14.709-25.135 17.939-42.074 20.023-49.868 6.878-120.294 9.557-163.463-19.647-26.904-18.201-29.933-100.915-27.328-131.159.54-6.278 4.148-15.873 7.989-20.377 12.49-14.641 43.066-16.706 60.682-18.616"/><path fill="#430d07" d="M633.149 672.593c2.099 4.906 1.771 24.334 1.99 30.392.882 24.492 7.158 41.591 19.02 62.521 2.476 5.52 6.249 10.722 9.082 15.915 4.843 8.877 23.92 14.26 28.182 19.695a80 80 0 0 1-5.45-1.053c-33.827-8.072-56.947-73.102-54.514-103.738.624-7.852-.151-15.92 1.69-23.732"/><path fill="#1c0c04" d="m792.455 777.14-.041 1.268c-8.455 11.181-32.366 26.052-46.328 28.36l.221-.992c10.11-3.573 37.946-21.301 46.148-28.636"/><path fill="#ce9c6f" d="M1184.47 752.1c3.2-7.006 9.4-19.863 10.8-27.316 4.35-23.192-3.25-52.257-10.71-74.476-2.73-8.134-10.92-17.3-9.05-24.526l1.07-.96c7.44.522 9.97 15.174 12.55 21.369 7.09 17.013 9.96 35.904 15.68 53.17.12-16.729-11.65-58.138-20.09-72.133 52.33 9.568 69.94 16.883 63.04 74.493-8.37 69.869-12.87 104.062-90.59 113.496-.55-8.074-1.89-15.545 3.53-22.145l4.04-.435-.22-1.888c-3.23-16.442 19.62-21.653 19.95-38.649"/><path fill="#430d07" d="m1200.02 738.373 1.35 2.115c-7.49 19.549-20.01 39.13-36.63 52.149l-.22-1.888a225.4 225.4 0 0 0 35.5-52.376"/><path fill="#744524" d="M1200.02 738.373c.91-2.706 1.74-6.512 3.81-8.14.72 3.221-1.32 6.76-2.46 10.255z"/><path fill="#ce9c6f" d="M1133.87 816.939c-25.29 2.79-81.51-2.859-105.15-12.812-18.09-7.615-37.406-55.631-44.478-74.775-6.232-16.872-14.659-48.119-5.593-65.502 8.307-15.929 35.951-23.795 52.361-28.323-13.45 27.969-18.43 45.73-12.41 77.065 5.67 29.475 18.21 59.382 44.56 75.864 19.29 12.062 34.8 21.76 57.68 17.312l8.78-1.938z"/><path fill="#430d07" d="M1053.56 792.938c5.27.614 22.88 10.938 28.11 14.045-12.62-1.055-18.5-6.597-28.11-14.045"/><path fill="#1c0c04" d="M1102.75 589.451c22.72-1.562 29.27 5.759 45.86 18.059h-47.86c-13.48-.035-28.58 3.107-40.1 2.982 4.07-10.285 32.06-19.336 42.1-21.041"/><path fill="#b3794c" d="M1184.47 752.1c-.33 16.996-23.18 22.207-19.95 38.649l.22 1.888-4.04.435.82-3.135-1.06-.52c-4.03 2.749-5.5 4.988-8.48 8.752-.28 6.437-.39 11.297-.13 17.718-4.97.242-11.04 1.428-14.69-1.352l-3.29 2.404-4.25-13.109-8.78 1.938 1.74-2.037c8.02-2.653 14.38-8.51 19.23-8.439 18.1-9.633 32.09-26.022 42.66-43.192"/><path fill="#1c0c04" d="m1120.84 805.768 1.74-2.037c8.02-2.653 14.38-8.51 19.23-8.439l-7.79 5.708 3.14 13.535-3.29 2.404-4.25-13.109z"/><path fill="#b3794c" d="M1148.35 1153.6c4.27 2.1 42.54 40.62 50.8 46.98 11.22 8.64 25.41 14.56 34.69 24.32 2.99 3.15 7.57 14.23 8.69 18.34 3.62 13.28 20.55 76.38 19.68 85.83-12.44-9.81-24.52-27.47-33.95-40.26-28.4-38.51-55.48-78.76-75.71-122.23-1.98-4.27-4.04-8.24-4.2-12.98"/><path fill="#e4bc90" d="M499.683 259.195c17.994 6.765 66.813 38.425 80.466 52.325 25.533 25.997 46.658 66.267 63.874 98.434 4.552 8.506 15.057 18.484 15.169 28.12-4.844-3.573-20.41-23.014-25.615-28.631a6408 6408 0 0 1-100.83-112.022c-4.718-5.424-10.669-11.847-15.04-17.333-3.708-4.653-17.438-16.64-18.024-20.893"/><path fill="#130905" d="M1298.08 535.163c-.21-3.805.19-15.548 1.89-18.499 2.11 8.449 2.01 43.377.13 51.621-.08 15.78-1.69 34.469-2.62 50.427-.89 15.174-1.64 34.83-4.05 49.444-3.26-5.007 3.38-118.068 4.65-132.993"/><path fill="#603218" d="M1298.08 535.163c-.21-3.805.19-15.548 1.89-18.499 2.11 8.449 2.01 43.377.13 51.621-.86-8.795 2.05-26.241-2.02-33.122"/><path fill="#430d07" d="M1050.85 600.867c13.98-19.857 23.27-26.116 47.55-26.246-14.9 4.287-34.33 9.018-43.67 24.218-.34.548-.31 1.155-.33 1.782-1.11.284-2.34.212-3.55.246M674.009 594.382c5.565-15.041 28.481-24.736 43.417-26.613-15.394 5.193-32.785 12.654-40.454 28.086z"/><path fill="#603218" d="m783.608 605.711-5.701-10.167.391.789.471-1.635-1.39-1.557.392 1.873-.424-2.127.079.22c4.183 3.354 9.055 9.565 12.873 13.727-2.474-.091-4.297-.593-6.691-1.123"/><path fill="url(#i)" d="M598.23 1346.02c75.547-.1 153.192 14.22 228.879 16.7 38.291 1.26 76.701-.38 115.012.71 14.673.41 34.228-2.93 48.223-.88 9.276-1.57 39.546-1.58 50.026-1.72 33.54-1.65 64.99-5.12 98.24-7.32l13.93-1.13c4.52 8.65 6.19 12.85 9.58 21.87 1.2 3.94 2.8 8.71 3.71 12.66-5 9.59-9.93 19.2-15.63 28.4-78.72 126.94-235.417 170.99-373.01 121.29-48.161-13.74-81.04-35.08-119.782-65.17-27.534-18.79-60.613-66.68-72.406-97.49 3.43-9.01 8.585-19.51 13.228-27.92"/><path fill="#430d07" d="M598.23 1346.02c75.547-.1 153.192 14.22 228.879 16.7 38.291 1.26 76.701-.38 115.012.71 14.673.41 34.228-2.93 48.223-.88-9.841 4-19.527 9.11-28.978 14.01-31.035 16.09-63.657 27.25-96.029 40.04-16.892 6.68-29.932 14.96-48.059 19.75-11.23-2.65-17.224-2.07-28.69-1.6-32.316-2.49-104.369 19.53-131.18 36.68-27.534-18.79-60.613-66.68-72.406-97.49 3.43-9.01 8.585-19.51 13.228-27.92"/><path fill="#ed6f45" d="M990.344 1362.55c9.276-1.57 39.546-1.58 50.026-1.72-17.1 11.32-35.28 27.2-52.498 37.16-36.781 21.28-77.432 39.92-116.52 56.68-11.747 4.9-29.861-6.62-40.648-11.25-3.395-1.46-10.968-5-13.426-7.07 18.127-4.79 31.167-13.07 48.059-19.75 32.372-12.79 64.994-23.95 96.029-40.04 9.451-4.9 19.137-10.01 28.978-14.01M657.408 1471.43c26.811-17.15 98.864-39.17 131.18-36.68-20.072 6.75-71.856 13.52-61.701 45.33 6.359 19.92 46 43.33 50.303 56.52-48.161-13.74-81.04-35.08-119.782-65.17"/><path fill="#fdfdfd" d="m1138.61 1353.51 13.93-1.13c4.52 8.65 6.19 12.85 9.58 21.87-.27 3.35-.34 3.89-1.2 7.13-3.31 3.79-9.61 5.59-13.48 1.78-7.03-6.92-7.85-20.46-8.83-29.65"/><path fill="#38404d" d="M1294.59 1288.97c18.04 22.72 24.47 37.96 45.84 59.36 3.46 14.84 1.32 33.66-.64 48.88a370.2 370.2 0 0 1-32.54 112.17c-6.19 13.05-13.87 27.06-21.04 39.61-25.85 45.18-42.85 93.06-63.96 140.19-29.8-58.95 9.7-125.6 28.3-182.07 1.78-5.38 9.04-26.48 11.56-29.84l-1.79-2.89c-3.75 16.25-44.74 88.08-56.08 101.23-4.45-68.5 13.48-139.99.27-208.57-1.17-6.07-2.28-12.15-3.45-18.22 14.76-1.64 62.55-2.88 73.3-6.09 5.33-4.14 7.03-15.92 8.92-23.06l5.87-16.95c1.74-4.74 3.51-9.09 5.44-13.75"/><path fill="#54a1de" d="M1289.15 1302.72c12.25 16.6 19.36 61.95 16.04 83.92l-.12.76c-2.9-9.88-6-19.69-9.29-29.44-2.8-8.07-12.06-31.43-12.5-38.29z"/><path fill="#2c3546" d="M1260.32 1474.38c1.77-4.99 3.17-9.89 6.06-14.29l1.16-.05c.62 4.43-2.18 14.41-5.43 17.23z"/><path fill="#38404d" d="M1300.45 1282.34c12.02-4.22 27.31-4.79 39.78-2.44 44.46 6.06 75.5 26.32 92.15 68.85-.21 6.83-.8 15.99-.35 22.57l1.08-.27 1.01-1.14c2.19 3.7 3.45 6.27 5.25 10.19 4.62 5.83 6.82 8.67 12.29 13.59.23 5.06.57 10.24.47 15.3-.44 12.78-9.4 50.06-5.46 56.07-.55 5.03-9.51 21.4-12.28 26.47-20.14 36.95-44.08 71.42-69 105.25-9.31 12.64-18.18 26.02-27.68 38.57-29.22 38.64-61.6 77.85-87.57 118.64-7.68-4.3-10.77-7.13-17.02-13.19 8.31-40.17 20.53-60.87 39.39-96.73 11.23-21.46 22.63-42.83 34.22-64.1 28.01-50.27 46.64-83.07 59.87-140.73 12.28-53.5 26.15-142.19-54.3-142.63-4.41-4.91-7.79-9.06-11.85-14.27"/><path fill="url(#j)" d="M1340.23 1279.9c44.46 6.06 75.5 26.32 92.15 68.85-.21 6.83-.8 15.99-.35 22.57 1.24 32.87-5.42 75.06-19.29 104.68-7.61 16.24-78.63 146.7-85.04 148.62 1.41-3.21 3.03-5.08 4.32-7.93 2.13-4.46 3.36-10.67 5.82-14.84 14.81-25.11 26.78-51.41 40.46-77.18 10.77-20.27 22.45-40.99 30.37-62.68 14.45-39.57 19.14-88.11 2.02-127.6-13.73-30.66-49.21-42.8-78.91-53.26 1.96-1.35 5.83-1.13 8.45-1.23"/><path fill="url(#k)" d="m1433.11 1371.05 1.01-1.14c2.19 3.7 3.45 6.27 5.25 10.19 4.62 5.83 6.82 8.67 12.29 13.59.23 5.06.57 10.24.47 15.3-4.36 5.21-9.37 21.96-11.93 29.2-5.7 16.13-18 47.36-28.24 59.89l-.9-.08c.24-1.86.51-3.73.79-5.59.32-7.5 2.03-7.62.89-16.41 13.87-29.62 20.53-71.81 19.29-104.68z"/><path fill="#2c3546" d="m1433.11 1371.05 1.01-1.14c2.19 3.7 3.45 6.27 5.25 10.19-2.86 4.8-1.7 26.83-4.38 37.01-5.44 32.19-11.14 45.88-23.14 75.3.32-7.5 2.03-7.62.89-16.41 13.87-29.62 20.53-71.81 19.29-104.68z"/><path fill="#38404d" d="m1433.11 1371.05 1.01-1.14c2.19 3.7 3.45 6.27 5.25 10.19-2.86 4.8-1.7 26.83-4.38 37.01-1.27-15.78-1.32-30.29-1.88-46.06M1144.83 1446.18c3.47-6.4 22.4-34.9 27.2-39.18 3.41 16.95 9.6 43.59 7.35 61.33-.26 1.99-4.82 9.46-6.09 11.41-6.86 10.6-31.43 37.53-41.27 43.64l-1.1-.15c-9.8 6.92-18.71 14.56-28.9 21.48-156.943 106.59-353.633 83.29-494.903-42.7 22.693-.09 37.402-2.39 59.05-7.8 133.344 93.02 300.408 105.73 431.333.82 18.04-14.45 32.33-31.46 47.33-48.85"/><path fill="#130905" d="M1144.83 1446.18c3.47-6.4 22.4-34.9 27.2-39.18 3.41 16.95 9.6 43.59 7.35 61.33-.26 1.99-4.82 9.46-6.09 11.41-6.86 10.6-31.43 37.53-41.27 43.64l-1.1-.15c.86-1.61 13.33-13 15.5-15.06.7-18.18.05-44.04-1.59-61.99"/><path fill="#38404d" d="m428.349 1452.17 10.823 1.28c12.811 15.42 21.342 37.35 31.219 54.94 9.276 16.52 20.623 34.19 27.948 51.47 1.093-1.7-3.001-13-4.057-15.86-7.717-20.92-11.318-48.15-8.662-70.29 7.914 3.23 16.973 8.6 24.89 12.44 13.383 6.49 26.525 10.5 41.065 13.45-.26 51.84 3.067 86.66 9.717 138.46 1.542 11.54-.681 16.9-4.006 27.72-8.136 26.47-24.548 45.1-44.979 62.99-19.914-44.6-44.502-85.02-66.096-128.58-4.642-9.37-9.33-33.58-11.797-44.86-6.741-30.8-19.156-73.13-6.065-103.16"/><path fill="#2c3546" d="M352.924 1420.17c11.752-.61 19.467 1.63 29.527 7.43 16.09 101.37 39.816 143.47 88.978 231.44a843 843 0 0 1 36.867 72.35c-3.455 2.39-7.042 5.22-10.422 7.76-16.146-12.6-22.224-19.94-36.142-35.3-31.798-34.57-71.357-80-92.688-122.12-9.553-18.86-17.895-45.73-25.385-65.89-7.475-20.12-17.136-42.02-19.843-63.01 7.679 12.88 16.222 36.78 24.129 52.04-.976-23.26-21.115-72.9 4.979-84.7"/><path fill="url(#l)" d="M1307.3 467.639c1.79-7.377 4.32-14.607 6.61-21.848 16.82-53.014 26.11-116.236 49.35-166.677-1.99 82.998-13.99 166.597-14.69 249.786-.07 8.079-.02 21.718-1.57 29.348-8.69-28.588-16.67-50.481-31.64-76.402.46-2.267.22-3.905.08-6.192-5.38-.678-3.66.979-7.42-1.826-.63-2.596-.59-3.548-.72-6.189"/><path fill="url(#m)" d="M1432.38 1348.75c3.39 8.4 5.28 14.14 11.44 20.99 15.54 17.31 37.5 20.73 26.06 48.4-6.38 15.43-17.63 32.7-23.21 46.92-3.94-6.01 5.02-43.29 5.46-56.07.1-5.06-.24-10.24-.47-15.3-5.47-4.92-7.67-7.76-12.29-13.59-1.8-3.92-3.06-6.49-5.25-10.19l-1.01 1.14-1.08.27c-.45-6.58.14-15.74.35-22.57"/><path fill="url(#n)" d="M1282.24 1283.46c.88 2.75.62 6.55.6 9.56.92-4.36 2.87-7.59 6.33-10.32-6.38 16.35-10.25 28.87-15.25 45.65-1.92-6.1-3.52-12.76-2.9-19.17l1.18 1.21c1.58-2 1.38-7.83 1.53-10.75 2.05-5.7 5.65-7.99 8.51-16.18"/></svg>