<svg height="634.8" viewBox="0 0 804 634.8" width="804" xmlns="http://www.w3.org/2000/svg">
<style>
text { font-family: -apple-system, BlinkMacSystemFont, 'Segoe UI', Roboto, sans-serif; }
</style>
<rect fill="#ffffff" height="634.8" width="804" x="0" y="0"/>
<text fill="#1f2328" font-size="18" font-weight="bold" x="30" y="48">
Commit Timeline
</text>
<text fill="#8b949e" font-size="12" x="30" y="64">
5 commits
</text>
<rect fill="#d1d9e0" height="373.29999999999995" rx="1.5" width="3" x="400.5" y="112"/>
<g>
<circle cx="402" cy="159.5" fill="#f6f8fa" r="22" stroke="#0969da" stroke-width="2"/>
<text fill="#0550ae" font-size="8" font-weight="600" x="391" y="157.5">
04/11
</text>
<text fill="#0969da" font-size="7" x="392" y="168.5">
2026
</text>
<rect fill="#d1d9e0" height="2" rx="1" width="40" x="340" y="158.5"/>
<circle cx="340" cy="159.5" fill="#0969da" r="3"/>
<rect fill="#f6f8fa" height="139" rx="5" ry="5" stroke="#d1d9e0" stroke-width="1" width="300" x="40" y="90"/>
<text fill="#0969da" font-size="8" x="50" y="110">
bf48ab5
</text>
<text fill="#1f2328" font-size="10" font-weight="600" x="50" y="123">
📝 docs(blog): clarify the AI commit post...
</text>
<text fill="#656d76" font-size="9" x="50" y="136">
- Standardize the project name to AI Commit in the
</text>
<text fill="#656d76" font-size="9" x="50" y="149">
body copy
</text>
<text fill="#656d76" font-size="9" x="50" y="162">
- Replace the screenshot alt text with a clearer
</text>
<text fill="#656d76" font-size="9" x="50" y="175">
description of the action shown
</text>
<text fill="#656d76" font-size="9" x="50" y="188">
- Keep the post narration aligned with the
</text>
<text fill="#656d76" font-size="9" x="50" y="201">
product’s current branding
</text>
<rect fill="#0969da" height="9" opacity="0.9" rx="2" ry="2" width="9" x="50" y="208"/>
</g>
<g>
<circle cx="402" cy="242.9" fill="#f6f8fa" r="22" stroke="#0969da" stroke-width="2"/>
<text fill="#0550ae" font-size="8" font-weight="600" x="391" y="240.9">
04/11
</text>
<text fill="#0969da" font-size="7" x="392" y="251.9">
2026
</text>
<rect fill="#d1d9e0" height="2" rx="1" width="40" x="424" y="241.9"/>
<circle cx="464" cy="242.9" fill="#0969da" r="3"/>
<rect fill="#f6f8fa" height="139" rx="5" ry="5" stroke="#d1d9e0" stroke-width="1" width="300" x="470" y="173.4"/>
<text fill="#0969da" font-size="8" x="480" y="193.4">
9aeda6d
</text>
<text fill="#1f2328" font-size="10" font-weight="600" x="480" y="206.4">
📝 docs(blog): correct project and post s...
</text>
<text fill="#656d76" font-size="9" x="480" y="219.4">
- Rename the project mention from the old lowercase
</text>
<text fill="#656d76" font-size="9" x="480" y="232.4">
form to AI Commit for consistency
</text>
<text fill="#656d76" font-size="9" x="480" y="245.4">
- Fix the HostsButler link slug so it points at the
</text>
<text fill="#656d76" font-size="9" x="480" y="258.4">
actual post URL
</text>
<text fill="#656d76" font-size="9" x="480" y="271.4">
- Keep the article text aligned with the current
</text>
<text fill="#656d76" font-size="9" x="480" y="284.4">
product and permalink structure
</text>
<rect fill="#0969da" height="9" opacity="0.9" rx="2" ry="2" width="9" x="480" y="291.4"/>
</g>
<g>
<circle cx="402" cy="325" fill="#f6f8fa" r="22" stroke="#0969da" stroke-width="2"/>
<text fill="#0550ae" font-size="8" font-weight="600" x="391" y="323">
04/11
</text>
<text fill="#0969da" font-size="7" x="392" y="334">
2026
</text>
<rect fill="#d1d9e0" height="2" rx="1" width="40" x="340" y="324"/>
<circle cx="340" cy="325" fill="#0969da" r="3"/>
<rect fill="#f6f8fa" height="126" rx="5" ry="5" stroke="#d1d9e0" stroke-width="1" width="300" x="40" y="262"/>
<text fill="#0969da" font-size="8" x="50" y="282">
ad763e4
</text>
<text fill="#1f2328" font-size="10" font-weight="600" x="50" y="295">
🐛 fix(mermaid): match embed background t...
</text>
<text fill="#656d76" font-size="9" x="50" y="308">
- Switch the Mermaid embed container to a
</text>
<text fill="#656d76" font-size="9" x="50" y="321">
dark-friendly background in dark mode
</text>
<text fill="#656d76" font-size="9" x="50" y="334">
- Keep the existing light-mode appearance unchanged
</text>
<text fill="#656d76" font-size="9" x="50" y="347">
- Prevent the diagram card from flashing a bright
</text>
<text fill="#656d76" font-size="9" x="50" y="360">
white panel in dark themes
</text>
<rect fill="#0969da" height="9" opacity="0.9" rx="2" ry="2" width="9" x="50" y="367"/>
</g>
<g>
<circle cx="402" cy="401.9" fill="#f6f8fa" r="22" stroke="#0969da" stroke-width="2"/>
<text fill="#0550ae" font-size="8" font-weight="600" x="391" y="399.9">
04/11
</text>
<text fill="#0969da" font-size="7" x="392" y="410.9">
2026
</text>
<rect fill="#d1d9e0" height="2" rx="1" width="40" x="424" y="400.9"/>
<circle cx="464" cy="401.9" fill="#0969da" r="3"/>
<rect fill="#f6f8fa" height="139" rx="5" ry="5" stroke="#d1d9e0" stroke-width="1" width="300" x="470" y="332.4"/>
<text fill="#0969da" font-size="8" x="480" y="352.4">
46bf31f
</text>
<text fill="#1f2328" font-size="10" font-weight="600" x="480" y="365.4">
📝 docs(blog): polish the post with media...
</text>
<text fill="#656d76" font-size="9" x="480" y="378.4">
- Add a screenshot showing the commit-and-push flow
</text>
<text fill="#656d76" font-size="9" x="480" y="391.4">
in action
</text>
<text fill="#656d76" font-size="9" x="480" y="404.4">
- Link the Alice in Chains reference instead of
</text>
<text fill="#656d76" font-size="9" x="480" y="417.4">
leaving it plain text
</text>
<text fill="#656d76" font-size="9" x="480" y="430.4">
- Point the version callout at the v0.0.5 release
</text>
<text fill="#656d76" font-size="9" x="480" y="443.4">
tag
</text>
<rect fill="#1a7f37" height="9" opacity="0.9" rx="2" ry="2" width="9" x="480" y="450.4"/>
<rect fill="#0969da" height="9" opacity="0.9" rx="2" ry="2" width="9" x="492" y="450.4"/>
</g>
<g>
<circle cx="402" cy="485.29999999999995" fill="#f6f8fa" r="22" stroke="#0969da" stroke-width="2"/>
<text fill="#0550ae" font-size="8" font-weight="600" x="391" y="483.29999999999995">
04/11
</text>
<text fill="#0969da" font-size="7" x="392" y="494.29999999999995">
2026
</text>
<rect fill="#d1d9e0" height="2" rx="1" width="40" x="340" y="484.29999999999995"/>
<circle cx="340" cy="485.29999999999995" fill="#0969da" r="3"/>
<rect fill="#f6f8fa" height="139" rx="5" ry="5" stroke="#d1d9e0" stroke-width="1" width="300" x="40" y="415.79999999999995"/>
<text fill="#0969da" font-size="8" x="50" y="435.79999999999995">
4e19043
</text>
<text fill="#1f2328" font-size="10" font-weight="600" x="50" y="448.79999999999995">
📝 docs(blog): introduce the aic project ...
</text>
<text fill="#656d76" font-size="9" x="50" y="461.79999999999995">
- Publish a new post announcing the AI-assisted
</text>
<text fill="#656d76" font-size="9" x="50" y="474.79999999999995">
commit tool and its motivation
</text>
<text fill="#656d76" font-size="9" x="50" y="487.79999999999995">
- Document setup, provider configuration, hooks,
</text>
<text fill="#656d76" font-size="9" x="50" y="500.79999999999995">
and common commands
</text>
<text fill="#656d76" font-size="9" x="50" y="513.8">
- Include usage examples and a workflow diagram to
</text>
<text fill="#656d76" font-size="9" x="50" y="526.8">
make the first run clearer
</text>
<rect fill="#0969da" height="9" opacity="0.9" rx="2" ry="2" width="9" x="50" y="533.8"/>
<rect fill="#0969da" height="9" opacity="0.9" rx="2" ry="2" width="9" x="62" y="533.8"/>
<rect fill="#0969da" height="9" opacity="0.9" rx="2" ry="2" width="9" x="74" y="533.8"/>
<rect fill="#0969da" height="9" opacity="0.9" rx="2" ry="2" width="9" x="86" y="533.8"/>
</g>
<text fill="#656d76" font-size="10" font-weight="600" x="30" y="574.8">
Directories:
</text>
<rect fill="#1a7f37" height="10" rx="2" ry="2" width="10" x="110" y="565.8"/>
<text fill="#656d76" font-size="9" x="124" y="574.8">
public
</text>
<rect fill="#0969da" height="10" rx="2" ry="2" width="10" x="174" y="565.8"/>
<text fill="#656d76" font-size="9" x="188" y="574.8">
src
</text>
</svg>