<svg height="319" viewBox="0 0 1011 319" width="1011" xmlns="http://www.w3.org/2000/svg">
<style>
text { font-family: -apple-system, BlinkMacSystemFont, 'Segoe UI', Roboto, sans-serif; }
</style>
<rect fill="#0d1117" height="319" width="1011" x="0" y="0"/>
<text fill="#e6edf3" font-size="18" font-weight="bold" x="40" y="60">
Activity Graph
</text>
<text fill="#6e7681" font-size="12" x="40" y="78">
1279 commits across 373 active days
</text>
<text fill="#6e7681" font-size="9" x="40" y="112">
Mon
</text>
<text fill="#6e7681" font-size="9" x="40" y="146">
Wed
</text>
<text fill="#6e7681" font-size="9" x="40" y="180">
Fri
</text>
<text fill="#6e7681" font-size="9" x="70" y="96">
Apr
</text>
<text fill="#6e7681" font-size="9" x="138" y="96">
May
</text>
<text fill="#6e7681" font-size="9" x="206" y="96">
Jun
</text>
<text fill="#6e7681" font-size="9" x="291" y="96">
Jul
</text>
<text fill="#6e7681" font-size="9" x="359" y="96">
Aug
</text>
<text fill="#6e7681" font-size="9" x="427" y="96">
Sep
</text>
<text fill="#6e7681" font-size="9" x="512" y="96">
Oct
</text>
<text fill="#6e7681" font-size="9" x="580" y="96">
Nov
</text>
<text fill="#6e7681" font-size="9" x="648" y="96">
Dec
</text>
<text fill="#6e7681" font-size="9" x="733" y="96">
Jan
</text>
<text fill="#6e7681" font-size="9" x="801" y="96">
Feb
</text>
<text fill="#6e7681" font-size="9" x="869" y="96">
Mar
</text>
<text fill="#6e7681" font-size="9" x="954" y="96">
Apr
</text>
<rect fill="#113426" height="14" rx="2" ry="2" width="14" x="70" y="100"/>
<rect fill="#161b22" height="14" rx="2" ry="2" width="14" x="70" y="117"/>
<rect fill="#161b22" height="14" rx="2" ry="2" width="14" x="70" y="134"/>
<rect fill="#161b22" height="14" rx="2" ry="2" width="14" x="70" y="151"/>
<rect fill="#113426" height="14" rx="2" ry="2" width="14" x="70" y="168"/>
<rect fill="#113426" height="14" rx="2" ry="2" width="14" x="70" y="185"/>
<rect fill="#113426" height="14" rx="2" ry="2" width="14" x="70" y="202"/>
<rect fill="#113426" height="14" rx="2" ry="2" width="14" x="87" y="100"/>
<rect fill="#161b22" height="14" rx="2" ry="2" width="14" x="87" y="117"/>
<rect fill="#161b22" height="14" rx="2" ry="2" width="14" x="87" y="134"/>
<rect fill="#161b22" height="14" rx="2" ry="2" width="14" x="87" y="151"/>
<rect fill="#161b22" height="14" rx="2" ry="2" width="14" x="87" y="168"/>
<rect fill="#161b22" height="14" rx="2" ry="2" width="14" x="87" y="185"/>
<rect fill="#161b22" height="14" rx="2" ry="2" width="14" x="87" y="202"/>
<rect fill="#113426" height="14" rx="2" ry="2" width="14" x="104" y="100"/>
<rect fill="#161b22" height="14" rx="2" ry="2" width="14" x="104" y="117"/>
<rect fill="#161b22" height="14" rx="2" ry="2" width="14" x="104" y="134"/>
<rect fill="#161b22" height="14" rx="2" ry="2" width="14" x="104" y="151"/>
<rect fill="#161b22" height="14" rx="2" ry="2" width="14" x="104" y="168"/>
<rect fill="#161b22" height="14" rx="2" ry="2" width="14" x="104" y="185"/>
<rect fill="#161b22" height="14" rx="2" ry="2" width="14" x="104" y="202"/>
<rect fill="#113426" height="14" rx="2" ry="2" width="14" x="121" y="100"/>
<rect fill="#161b22" height="14" rx="2" ry="2" width="14" x="121" y="117"/>
<rect fill="#161b22" height="14" rx="2" ry="2" width="14" x="121" y="134"/>
<rect fill="#161b22" height="14" rx="2" ry="2" width="14" x="121" y="151"/>
<rect fill="#161b22" height="14" rx="2" ry="2" width="14" x="121" y="168"/>
<rect fill="#161b22" height="14" rx="2" ry="2" width="14" x="121" y="185"/>
<rect fill="#161b22" height="14" rx="2" ry="2" width="14" x="121" y="202"/>
<rect fill="#113426" height="14" rx="2" ry="2" width="14" x="138" y="100"/>
<rect fill="#161b22" height="14" rx="2" ry="2" width="14" x="138" y="117"/>
<rect fill="#161b22" height="14" rx="2" ry="2" width="14" x="138" y="134"/>
<rect fill="#161b22" height="14" rx="2" ry="2" width="14" x="138" y="151"/>
<rect fill="#161b22" height="14" rx="2" ry="2" width="14" x="138" y="168"/>
<rect fill="#161b22" height="14" rx="2" ry="2" width="14" x="138" y="185"/>
<rect fill="#161b22" height="14" rx="2" ry="2" width="14" x="138" y="202"/>
<rect fill="#113426" height="14" rx="2" ry="2" width="14" x="155" y="100"/>
<rect fill="#161b22" height="14" rx="2" ry="2" width="14" x="155" y="117"/>
<rect fill="#113426" height="14" rx="2" ry="2" width="14" x="155" y="134"/>
<rect fill="#161b22" height="14" rx="2" ry="2" width="14" x="155" y="151"/>
<rect fill="#113426" height="14" rx="2" ry="2" width="14" x="155" y="168"/>
<rect fill="#161b22" height="14" rx="2" ry="2" width="14" x="155" y="185"/>
<rect fill="#161b22" height="14" rx="2" ry="2" width="14" x="155" y="202"/>
<rect fill="#113426" height="14" rx="2" ry="2" width="14" x="172" y="100"/>
<rect fill="#161b22" height="14" rx="2" ry="2" width="14" x="172" y="117"/>
<rect fill="#161b22" height="14" rx="2" ry="2" width="14" x="172" y="134"/>
<rect fill="#161b22" height="14" rx="2" ry="2" width="14" x="172" y="151"/>
<rect fill="#161b22" height="14" rx="2" ry="2" width="14" x="172" y="168"/>
<rect fill="#161b22" height="14" rx="2" ry="2" width="14" x="172" y="185"/>
<rect fill="#161b22" height="14" rx="2" ry="2" width="14" x="172" y="202"/>
<rect fill="#0f3d28" height="14" rx="2" ry="2" width="14" x="189" y="100"/>
<rect fill="#161b22" height="14" rx="2" ry="2" width="14" x="189" y="117"/>
<rect fill="#161b22" height="14" rx="2" ry="2" width="14" x="189" y="134"/>
<rect fill="#161b22" height="14" rx="2" ry="2" width="14" x="189" y="151"/>
<rect fill="#161b22" height="14" rx="2" ry="2" width="14" x="189" y="168"/>
<rect fill="#161b22" height="14" rx="2" ry="2" width="14" x="189" y="185"/>
<rect fill="#161b22" height="14" rx="2" ry="2" width="14" x="189" y="202"/>
<rect fill="#113426" height="14" rx="2" ry="2" width="14" x="206" y="100"/>
<rect fill="#161b22" height="14" rx="2" ry="2" width="14" x="206" y="117"/>
<rect fill="#161b22" height="14" rx="2" ry="2" width="14" x="206" y="134"/>
<rect fill="#161b22" height="14" rx="2" ry="2" width="14" x="206" y="151"/>
<rect fill="#161b22" height="14" rx="2" ry="2" width="14" x="206" y="168"/>
<rect fill="#161b22" height="14" rx="2" ry="2" width="14" x="206" y="185"/>
<rect fill="#161b22" height="14" rx="2" ry="2" width="14" x="206" y="202"/>
<rect fill="#113426" height="14" rx="2" ry="2" width="14" x="223" y="100"/>
<rect fill="#161b22" height="14" rx="2" ry="2" width="14" x="223" y="117"/>
<rect fill="#161b22" height="14" rx="2" ry="2" width="14" x="223" y="134"/>
<rect fill="#161b22" height="14" rx="2" ry="2" width="14" x="223" y="151"/>
<rect fill="#161b22" height="14" rx="2" ry="2" width="14" x="223" y="168"/>
<rect fill="#161b22" height="14" rx="2" ry="2" width="14" x="223" y="185"/>
<rect fill="#161b22" height="14" rx="2" ry="2" width="14" x="223" y="202"/>
<rect fill="#113426" height="14" rx="2" ry="2" width="14" x="240" y="100"/>
<rect fill="#161b22" height="14" rx="2" ry="2" width="14" x="240" y="117"/>
<rect fill="#161b22" height="14" rx="2" ry="2" width="14" x="240" y="134"/>
<rect fill="#161b22" height="14" rx="2" ry="2" width="14" x="240" y="151"/>
<rect fill="#161b22" height="14" rx="2" ry="2" width="14" x="240" y="168"/>
<rect fill="#161b22" height="14" rx="2" ry="2" width="14" x="240" y="185"/>
<rect fill="#161b22" height="14" rx="2" ry="2" width="14" x="240" y="202"/>
<rect fill="#113426" height="14" rx="2" ry="2" width="14" x="257" y="100"/>
<rect fill="#161b22" height="14" rx="2" ry="2" width="14" x="257" y="117"/>
<rect fill="#161b22" height="14" rx="2" ry="2" width="14" x="257" y="134"/>
<rect fill="#161b22" height="14" rx="2" ry="2" width="14" x="257" y="151"/>
<rect fill="#161b22" height="14" rx="2" ry="2" width="14" x="257" y="168"/>
<rect fill="#161b22" height="14" rx="2" ry="2" width="14" x="257" y="185"/>
<rect fill="#161b22" height="14" rx="2" ry="2" width="14" x="257" y="202"/>
<rect fill="#113426" height="14" rx="2" ry="2" width="14" x="274" y="100"/>
<rect fill="#161b22" height="14" rx="2" ry="2" width="14" x="274" y="117"/>
<rect fill="#161b22" height="14" rx="2" ry="2" width="14" x="274" y="134"/>
<rect fill="#161b22" height="14" rx="2" ry="2" width="14" x="274" y="151"/>
<rect fill="#161b22" height="14" rx="2" ry="2" width="14" x="274" y="168"/>
<rect fill="#161b22" height="14" rx="2" ry="2" width="14" x="274" y="185"/>
<rect fill="#113426" height="14" rx="2" ry="2" width="14" x="274" y="202"/>
<rect fill="#113426" height="14" rx="2" ry="2" width="14" x="291" y="100"/>
<rect fill="#161b22" height="14" rx="2" ry="2" width="14" x="291" y="117"/>
<rect fill="#161b22" height="14" rx="2" ry="2" width="14" x="291" y="134"/>
<rect fill="#161b22" height="14" rx="2" ry="2" width="14" x="291" y="151"/>
<rect fill="#161b22" height="14" rx="2" ry="2" width="14" x="291" y="168"/>
<rect fill="#161b22" height="14" rx="2" ry="2" width="14" x="291" y="185"/>
<rect fill="#161b22" height="14" rx="2" ry="2" width="14" x="291" y="202"/>
<rect fill="#113426" height="14" rx="2" ry="2" width="14" x="308" y="100"/>
<rect fill="#161b22" height="14" rx="2" ry="2" width="14" x="308" y="117"/>
<rect fill="#161b22" height="14" rx="2" ry="2" width="14" x="308" y="134"/>
<rect fill="#161b22" height="14" rx="2" ry="2" width="14" x="308" y="151"/>
<rect fill="#161b22" height="14" rx="2" ry="2" width="14" x="308" y="168"/>
<rect fill="#161b22" height="14" rx="2" ry="2" width="14" x="308" y="185"/>
<rect fill="#113426" height="14" rx="2" ry="2" width="14" x="308" y="202"/>
<rect fill="#113426" height="14" rx="2" ry="2" width="14" x="325" y="100"/>
<rect fill="#161b22" height="14" rx="2" ry="2" width="14" x="325" y="117"/>
<rect fill="#161b22" height="14" rx="2" ry="2" width="14" x="325" y="134"/>
<rect fill="#161b22" height="14" rx="2" ry="2" width="14" x="325" y="151"/>
<rect fill="#161b22" height="14" rx="2" ry="2" width="14" x="325" y="168"/>
<rect fill="#161b22" height="14" rx="2" ry="2" width="14" x="325" y="185"/>
<rect fill="#161b22" height="14" rx="2" ry="2" width="14" x="325" y="202"/>
<rect fill="#113426" height="14" rx="2" ry="2" width="14" x="342" y="100"/>
<rect fill="#161b22" height="14" rx="2" ry="2" width="14" x="342" y="117"/>
<rect fill="#161b22" height="14" rx="2" ry="2" width="14" x="342" y="134"/>
<rect fill="#161b22" height="14" rx="2" ry="2" width="14" x="342" y="151"/>
<rect fill="#161b22" height="14" rx="2" ry="2" width="14" x="342" y="168"/>
<rect fill="#161b22" height="14" rx="2" ry="2" width="14" x="342" y="185"/>
<rect fill="#161b22" height="14" rx="2" ry="2" width="14" x="342" y="202"/>
<rect fill="#0e4429" height="14" rx="2" ry="2" width="14" x="359" y="100"/>
<rect fill="#161b22" height="14" rx="2" ry="2" width="14" x="359" y="117"/>
<rect fill="#161b22" height="14" rx="2" ry="2" width="14" x="359" y="134"/>
<rect fill="#161b22" height="14" rx="2" ry="2" width="14" x="359" y="151"/>
<rect fill="#161b22" height="14" rx="2" ry="2" width="14" x="359" y="168"/>
<rect fill="#161b22" height="14" rx="2" ry="2" width="14" x="359" y="185"/>
<rect fill="#161b22" height="14" rx="2" ry="2" width="14" x="359" y="202"/>
<rect fill="#113426" height="14" rx="2" ry="2" width="14" x="376" y="100"/>
<rect fill="#161b22" height="14" rx="2" ry="2" width="14" x="376" y="117"/>
<rect fill="#161b22" height="14" rx="2" ry="2" width="14" x="376" y="134"/>
<rect fill="#161b22" height="14" rx="2" ry="2" width="14" x="376" y="151"/>
<rect fill="#161b22" height="14" rx="2" ry="2" width="14" x="376" y="168"/>
<rect fill="#161b22" height="14" rx="2" ry="2" width="14" x="376" y="185"/>
<rect fill="#161b22" height="14" rx="2" ry="2" width="14" x="376" y="202"/>
<rect fill="#113426" height="14" rx="2" ry="2" width="14" x="393" y="100"/>
<rect fill="#161b22" height="14" rx="2" ry="2" width="14" x="393" y="117"/>
<rect fill="#161b22" height="14" rx="2" ry="2" width="14" x="393" y="134"/>
<rect fill="#161b22" height="14" rx="2" ry="2" width="14" x="393" y="151"/>
<rect fill="#161b22" height="14" rx="2" ry="2" width="14" x="393" y="168"/>
<rect fill="#113627" height="14" rx="2" ry="2" width="14" x="393" y="185"/>
<rect fill="#161b22" height="14" rx="2" ry="2" width="14" x="393" y="202"/>
<rect fill="#113426" height="14" rx="2" ry="2" width="14" x="410" y="100"/>
<rect fill="#161b22" height="14" rx="2" ry="2" width="14" x="410" y="117"/>
<rect fill="#161b22" height="14" rx="2" ry="2" width="14" x="410" y="134"/>
<rect fill="#161b22" height="14" rx="2" ry="2" width="14" x="410" y="151"/>
<rect fill="#161b22" height="14" rx="2" ry="2" width="14" x="410" y="168"/>
<rect fill="#161b22" height="14" rx="2" ry="2" width="14" x="410" y="185"/>
<rect fill="#161b22" height="14" rx="2" ry="2" width="14" x="410" y="202"/>
<rect fill="#113426" height="14" rx="2" ry="2" width="14" x="427" y="100"/>
<rect fill="#161b22" height="14" rx="2" ry="2" width="14" x="427" y="117"/>
<rect fill="#161b22" height="14" rx="2" ry="2" width="14" x="427" y="134"/>
<rect fill="#161b22" height="14" rx="2" ry="2" width="14" x="427" y="151"/>
<rect fill="#161b22" height="14" rx="2" ry="2" width="14" x="427" y="168"/>
<rect fill="#161b22" height="14" rx="2" ry="2" width="14" x="427" y="185"/>
<rect fill="#161b22" height="14" rx="2" ry="2" width="14" x="427" y="202"/>
<rect fill="#113426" height="14" rx="2" ry="2" width="14" x="444" y="100"/>
<rect fill="#161b22" height="14" rx="2" ry="2" width="14" x="444" y="117"/>
<rect fill="#161b22" height="14" rx="2" ry="2" width="14" x="444" y="134"/>
<rect fill="#161b22" height="14" rx="2" ry="2" width="14" x="444" y="151"/>
<rect fill="#161b22" height="14" rx="2" ry="2" width="14" x="444" y="168"/>
<rect fill="#161b22" height="14" rx="2" ry="2" width="14" x="444" y="185"/>
<rect fill="#161b22" height="14" rx="2" ry="2" width="14" x="444" y="202"/>
<rect fill="#113426" height="14" rx="2" ry="2" width="14" x="461" y="100"/>
<rect fill="#161b22" height="14" rx="2" ry="2" width="14" x="461" y="117"/>
<rect fill="#161b22" height="14" rx="2" ry="2" width="14" x="461" y="134"/>
<rect fill="#161b22" height="14" rx="2" ry="2" width="14" x="461" y="151"/>
<rect fill="#161b22" height="14" rx="2" ry="2" width="14" x="461" y="168"/>
<rect fill="#161b22" height="14" rx="2" ry="2" width="14" x="461" y="185"/>
<rect fill="#161b22" height="14" rx="2" ry="2" width="14" x="461" y="202"/>
<rect fill="#113426" height="14" rx="2" ry="2" width="14" x="478" y="100"/>
<rect fill="#161b22" height="14" rx="2" ry="2" width="14" x="478" y="117"/>
<rect fill="#161b22" height="14" rx="2" ry="2" width="14" x="478" y="134"/>
<rect fill="#161b22" height="14" rx="2" ry="2" width="14" x="478" y="151"/>
<rect fill="#161b22" height="14" rx="2" ry="2" width="14" x="478" y="168"/>
<rect fill="#161b22" height="14" rx="2" ry="2" width="14" x="478" y="185"/>
<rect fill="#161b22" height="14" rx="2" ry="2" width="14" x="478" y="202"/>
<rect fill="#113426" height="14" rx="2" ry="2" width="14" x="495" y="100"/>
<rect fill="#161b22" height="14" rx="2" ry="2" width="14" x="495" y="117"/>
<rect fill="#161b22" height="14" rx="2" ry="2" width="14" x="495" y="134"/>
<rect fill="#067635" height="14" rx="2" ry="2" width="14" x="495" y="151"/>
<rect fill="#07592e" height="14" rx="2" ry="2" width="14" x="495" y="168"/>
<rect fill="#07592e" height="14" rx="2" ry="2" width="14" x="495" y="185"/>
<rect fill="#0f3d28" height="14" rx="2" ry="2" width="14" x="495" y="202"/>
<rect fill="#113426" height="14" rx="2" ry="2" width="14" x="512" y="100"/>
<rect fill="#161b22" height="14" rx="2" ry="2" width="14" x="512" y="117"/>
<rect fill="#113426" height="14" rx="2" ry="2" width="14" x="512" y="134"/>
<rect fill="#161b22" height="14" rx="2" ry="2" width="14" x="512" y="151"/>
<rect fill="#113426" height="14" rx="2" ry="2" width="14" x="512" y="168"/>
<rect fill="#0f3d28" height="14" rx="2" ry="2" width="14" x="512" y="185"/>
<rect fill="#113426" height="14" rx="2" ry="2" width="14" x="512" y="202"/>
<rect fill="#113627" height="14" rx="2" ry="2" width="14" x="529" y="100"/>
<rect fill="#161b22" height="14" rx="2" ry="2" width="14" x="529" y="117"/>
<rect fill="#161b22" height="14" rx="2" ry="2" width="14" x="529" y="134"/>
<rect fill="#161b22" height="14" rx="2" ry="2" width="14" x="529" y="151"/>
<rect fill="#161b22" height="14" rx="2" ry="2" width="14" x="529" y="168"/>
<rect fill="#161b22" height="14" rx="2" ry="2" width="14" x="529" y="185"/>
<rect fill="#161b22" height="14" rx="2" ry="2" width="14" x="529" y="202"/>
<rect fill="#113426" height="14" rx="2" ry="2" width="14" x="546" y="100"/>
<rect fill="#161b22" height="14" rx="2" ry="2" width="14" x="546" y="117"/>
<rect fill="#161b22" height="14" rx="2" ry="2" width="14" x="546" y="134"/>
<rect fill="#161b22" height="14" rx="2" ry="2" width="14" x="546" y="151"/>
<rect fill="#113426" height="14" rx="2" ry="2" width="14" x="546" y="168"/>
<rect fill="#0d8037" height="14" rx="2" ry="2" width="14" x="546" y="185"/>
<rect fill="#09522c" height="14" rx="2" ry="2" width="14" x="546" y="202"/>
<rect fill="#113627" height="14" rx="2" ry="2" width="14" x="563" y="100"/>
<rect fill="#161b22" height="14" rx="2" ry="2" width="14" x="563" y="117"/>
<rect fill="#161b22" height="14" rx="2" ry="2" width="14" x="563" y="134"/>
<rect fill="#113426" height="14" rx="2" ry="2" width="14" x="563" y="151"/>
<rect fill="#0d8037" height="14" rx="2" ry="2" width="14" x="563" y="168"/>
<rect fill="#39d353" height="14" rx="2" ry="2" width="14" x="563" y="185"/>
<rect fill="#29ae44" height="14" rx="2" ry="2" width="14" x="563" y="202"/>
<rect fill="#113627" height="14" rx="2" ry="2" width="14" x="580" y="100"/>
<rect fill="#0e4429" height="14" rx="2" ry="2" width="14" x="580" y="117"/>
<rect fill="#161b22" height="14" rx="2" ry="2" width="14" x="580" y="134"/>
<rect fill="#0f3d28" height="14" rx="2" ry="2" width="14" x="580" y="151"/>
<rect fill="#161b22" height="14" rx="2" ry="2" width="14" x="580" y="168"/>
<rect fill="#0d8037" height="14" rx="2" ry="2" width="14" x="580" y="185"/>
<rect fill="#113426" height="14" rx="2" ry="2" width="14" x="580" y="202"/>
<rect fill="#113426" height="14" rx="2" ry="2" width="14" x="597" y="100"/>
<rect fill="#161b22" height="14" rx="2" ry="2" width="14" x="597" y="117"/>
<rect fill="#161b22" height="14" rx="2" ry="2" width="14" x="597" y="134"/>
<rect fill="#161b22" height="14" rx="2" ry="2" width="14" x="597" y="151"/>
<rect fill="#161b22" height="14" rx="2" ry="2" width="14" x="597" y="168"/>
<rect fill="#113426" height="14" rx="2" ry="2" width="14" x="597" y="185"/>
<rect fill="#0e4429" height="14" rx="2" ry="2" width="14" x="597" y="202"/>
<rect fill="#113426" height="14" rx="2" ry="2" width="14" x="614" y="100"/>
<rect fill="#161b22" height="14" rx="2" ry="2" width="14" x="614" y="117"/>
<rect fill="#161b22" height="14" rx="2" ry="2" width="14" x="614" y="134"/>
<rect fill="#161b22" height="14" rx="2" ry="2" width="14" x="614" y="151"/>
<rect fill="#161b22" height="14" rx="2" ry="2" width="14" x="614" y="168"/>
<rect fill="#113426" height="14" rx="2" ry="2" width="14" x="614" y="185"/>
<rect fill="#0e4429" height="14" rx="2" ry="2" width="14" x="614" y="202"/>
<rect fill="#0f3d28" height="14" rx="2" ry="2" width="14" x="631" y="100"/>
<rect fill="#113426" height="14" rx="2" ry="2" width="14" x="631" y="117"/>
<rect fill="#113426" height="14" rx="2" ry="2" width="14" x="631" y="134"/>
<rect fill="#113426" height="14" rx="2" ry="2" width="14" x="631" y="151"/>
<rect fill="#055f2f" height="14" rx="2" ry="2" width="14" x="631" y="168"/>
<rect fill="#026631" height="14" rx="2" ry="2" width="14" x="631" y="185"/>
<rect fill="#113426" height="14" rx="2" ry="2" width="14" x="631" y="202"/>
<rect fill="#0f3d28" height="14" rx="2" ry="2" width="14" x="648" y="100"/>
<rect fill="#113426" height="14" rx="2" ry="2" width="14" x="648" y="117"/>
<rect fill="#113426" height="14" rx="2" ry="2" width="14" x="648" y="134"/>
<rect fill="#161b22" height="14" rx="2" ry="2" width="14" x="648" y="151"/>
<rect fill="#113426" height="14" rx="2" ry="2" width="14" x="648" y="168"/>
<rect fill="#0e4429" height="14" rx="2" ry="2" width="14" x="648" y="185"/>
<rect fill="#0f3d28" height="14" rx="2" ry="2" width="14" x="648" y="202"/>
<rect fill="#113426" height="14" rx="2" ry="2" width="14" x="665" y="100"/>
<rect fill="#113627" height="14" rx="2" ry="2" width="14" x="665" y="117"/>
<rect fill="#161b22" height="14" rx="2" ry="2" width="14" x="665" y="134"/>
<rect fill="#161b22" height="14" rx="2" ry="2" width="14" x="665" y="151"/>
<rect fill="#161b22" height="14" rx="2" ry="2" width="14" x="665" y="168"/>
<rect fill="#161b22" height="14" rx="2" ry="2" width="14" x="665" y="185"/>
<rect fill="#161b22" height="14" rx="2" ry="2" width="14" x="665" y="202"/>
<rect fill="#113426" height="14" rx="2" ry="2" width="14" x="682" y="100"/>
<rect fill="#113426" height="14" rx="2" ry="2" width="14" x="682" y="117"/>
<rect fill="#161b22" height="14" rx="2" ry="2" width="14" x="682" y="134"/>
<rect fill="#161b22" height="14" rx="2" ry="2" width="14" x="682" y="151"/>
<rect fill="#161b22" height="14" rx="2" ry="2" width="14" x="682" y="168"/>
<rect fill="#113426" height="14" rx="2" ry="2" width="14" x="682" y="185"/>
<rect fill="#113426" height="14" rx="2" ry="2" width="14" x="682" y="202"/>
<rect fill="#26a641" height="14" rx="2" ry="2" width="14" x="699" y="100"/>
<rect fill="#113426" height="14" rx="2" ry="2" width="14" x="699" y="117"/>
<rect fill="#113426" height="14" rx="2" ry="2" width="14" x="699" y="134"/>
<rect fill="#161b22" height="14" rx="2" ry="2" width="14" x="699" y="151"/>
<rect fill="#113426" height="14" rx="2" ry="2" width="14" x="699" y="168"/>
<rect fill="#026631" height="14" rx="2" ry="2" width="14" x="699" y="185"/>
<rect fill="#0c4b2b" height="14" rx="2" ry="2" width="14" x="699" y="202"/>
<rect fill="#0c4b2b" height="14" rx="2" ry="2" width="14" x="716" y="100"/>
<rect fill="#161b22" height="14" rx="2" ry="2" width="14" x="716" y="117"/>
<rect fill="#113426" height="14" rx="2" ry="2" width="14" x="716" y="134"/>
<rect fill="#161b22" height="14" rx="2" ry="2" width="14" x="716" y="151"/>
<rect fill="#161b22" height="14" rx="2" ry="2" width="14" x="716" y="168"/>
<rect fill="#113426" height="14" rx="2" ry="2" width="14" x="716" y="185"/>
<rect fill="#0e4429" height="14" rx="2" ry="2" width="14" x="716" y="202"/>
<rect fill="#113426" height="14" rx="2" ry="2" width="14" x="733" y="100"/>
<rect fill="#161b22" height="14" rx="2" ry="2" width="14" x="733" y="117"/>
<rect fill="#161b22" height="14" rx="2" ry="2" width="14" x="733" y="134"/>
<rect fill="#113426" height="14" rx="2" ry="2" width="14" x="733" y="151"/>
<rect fill="#161b22" height="14" rx="2" ry="2" width="14" x="733" y="168"/>
<rect fill="#161b22" height="14" rx="2" ry="2" width="14" x="733" y="185"/>
<rect fill="#113426" height="14" rx="2" ry="2" width="14" x="733" y="202"/>
<rect fill="#113426" height="14" rx="2" ry="2" width="14" x="750" y="100"/>
<rect fill="#161b22" height="14" rx="2" ry="2" width="14" x="750" y="117"/>
<rect fill="#161b22" height="14" rx="2" ry="2" width="14" x="750" y="134"/>
<rect fill="#113627" height="14" rx="2" ry="2" width="14" x="750" y="151"/>
<rect fill="#161b22" height="14" rx="2" ry="2" width="14" x="750" y="168"/>
<rect fill="#113426" height="14" rx="2" ry="2" width="14" x="750" y="185"/>
<rect fill="#113426" height="14" rx="2" ry="2" width="14" x="750" y="202"/>
<rect fill="#0c4b2b" height="14" rx="2" ry="2" width="14" x="767" y="100"/>
<rect fill="#161b22" height="14" rx="2" ry="2" width="14" x="767" y="117"/>
<rect fill="#113426" height="14" rx="2" ry="2" width="14" x="767" y="134"/>
<rect fill="#161b22" height="14" rx="2" ry="2" width="14" x="767" y="151"/>
<rect fill="#161b22" height="14" rx="2" ry="2" width="14" x="767" y="168"/>
<rect fill="#113426" height="14" rx="2" ry="2" width="14" x="767" y="185"/>
<rect fill="#113426" height="14" rx="2" ry="2" width="14" x="767" y="202"/>
<rect fill="#113426" height="14" rx="2" ry="2" width="14" x="784" y="100"/>
<rect fill="#161b22" height="14" rx="2" ry="2" width="14" x="784" y="117"/>
<rect fill="#161b22" height="14" rx="2" ry="2" width="14" x="784" y="134"/>
<rect fill="#113426" height="14" rx="2" ry="2" width="14" x="784" y="151"/>
<rect fill="#113426" height="14" rx="2" ry="2" width="14" x="784" y="168"/>
<rect fill="#113426" height="14" rx="2" ry="2" width="14" x="784" y="185"/>
<rect fill="#113426" height="14" rx="2" ry="2" width="14" x="784" y="202"/>
<rect fill="#113426" height="14" rx="2" ry="2" width="14" x="801" y="100"/>
<rect fill="#161b22" height="14" rx="2" ry="2" width="14" x="801" y="117"/>
<rect fill="#161b22" height="14" rx="2" ry="2" width="14" x="801" y="134"/>
<rect fill="#161b22" height="14" rx="2" ry="2" width="14" x="801" y="151"/>
<rect fill="#161b22" height="14" rx="2" ry="2" width="14" x="801" y="168"/>
<rect fill="#161b22" height="14" rx="2" ry="2" width="14" x="801" y="185"/>
<rect fill="#113426" height="14" rx="2" ry="2" width="14" x="801" y="202"/>
<rect fill="#113627" height="14" rx="2" ry="2" width="14" x="818" y="100"/>
<rect fill="#161b22" height="14" rx="2" ry="2" width="14" x="818" y="117"/>
<rect fill="#161b22" height="14" rx="2" ry="2" width="14" x="818" y="134"/>
<rect fill="#161b22" height="14" rx="2" ry="2" width="14" x="818" y="151"/>
<rect fill="#161b22" height="14" rx="2" ry="2" width="14" x="818" y="168"/>
<rect fill="#161b22" height="14" rx="2" ry="2" width="14" x="818" y="185"/>
<rect fill="#113426" height="14" rx="2" ry="2" width="14" x="818" y="202"/>
<rect fill="#113627" height="14" rx="2" ry="2" width="14" x="835" y="100"/>
<rect fill="#161b22" height="14" rx="2" ry="2" width="14" x="835" y="117"/>
<rect fill="#113426" height="14" rx="2" ry="2" width="14" x="835" y="134"/>
<rect fill="#161b22" height="14" rx="2" ry="2" width="14" x="835" y="151"/>
<rect fill="#161b22" height="14" rx="2" ry="2" width="14" x="835" y="168"/>
<rect fill="#113426" height="14" rx="2" ry="2" width="14" x="835" y="185"/>
<rect fill="#113426" height="14" rx="2" ry="2" width="14" x="835" y="202"/>
<rect fill="#113426" height="14" rx="2" ry="2" width="14" x="852" y="100"/>
<rect fill="#161b22" height="14" rx="2" ry="2" width="14" x="852" y="117"/>
<rect fill="#161b22" height="14" rx="2" ry="2" width="14" x="852" y="134"/>
<rect fill="#161b22" height="14" rx="2" ry="2" width="14" x="852" y="151"/>
<rect fill="#113426" height="14" rx="2" ry="2" width="14" x="852" y="168"/>
<rect fill="#0f3d28" height="14" rx="2" ry="2" width="14" x="852" y="185"/>
<rect fill="#113627" height="14" rx="2" ry="2" width="14" x="852" y="202"/>
<rect fill="#113426" height="14" rx="2" ry="2" width="14" x="869" y="100"/>
<rect fill="#161b22" height="14" rx="2" ry="2" width="14" x="869" y="117"/>
<rect fill="#161b22" height="14" rx="2" ry="2" width="14" x="869" y="134"/>
<rect fill="#113426" height="14" rx="2" ry="2" width="14" x="869" y="151"/>
<rect fill="#113426" height="14" rx="2" ry="2" width="14" x="869" y="168"/>
<rect fill="#113627" height="14" rx="2" ry="2" width="14" x="869" y="185"/>
<rect fill="#113426" height="14" rx="2" ry="2" width="14" x="869" y="202"/>
<rect fill="#113426" height="14" rx="2" ry="2" width="14" x="886" y="100"/>
<rect fill="#113426" height="14" rx="2" ry="2" width="14" x="886" y="117"/>
<rect fill="#161b22" height="14" rx="2" ry="2" width="14" x="886" y="134"/>
<rect fill="#161b22" height="14" rx="2" ry="2" width="14" x="886" y="151"/>
<rect fill="#161b22" height="14" rx="2" ry="2" width="14" x="886" y="168"/>
<rect fill="#161b22" height="14" rx="2" ry="2" width="14" x="886" y="185"/>
<rect fill="#113426" height="14" rx="2" ry="2" width="14" x="886" y="202"/>
<rect fill="#113426" height="14" rx="2" ry="2" width="14" x="903" y="100"/>
<rect fill="#113426" height="14" rx="2" ry="2" width="14" x="903" y="117"/>
<rect fill="#113426" height="14" rx="2" ry="2" width="14" x="903" y="134"/>
<rect fill="#161b22" height="14" rx="2" ry="2" width="14" x="903" y="151"/>
<rect fill="#161b22" height="14" rx="2" ry="2" width="14" x="903" y="168"/>
<rect fill="#113426" height="14" rx="2" ry="2" width="14" x="903" y="185"/>
<rect fill="#0f3d28" height="14" rx="2" ry="2" width="14" x="903" y="202"/>
<rect fill="#113426" height="14" rx="2" ry="2" width="14" x="920" y="100"/>
<rect fill="#161b22" height="14" rx="2" ry="2" width="14" x="920" y="117"/>
<rect fill="#161b22" height="14" rx="2" ry="2" width="14" x="920" y="134"/>
<rect fill="#161b22" height="14" rx="2" ry="2" width="14" x="920" y="151"/>
<rect fill="#161b22" height="14" rx="2" ry="2" width="14" x="920" y="168"/>
<rect fill="#113426" height="14" rx="2" ry="2" width="14" x="920" y="185"/>
<rect fill="#113426" height="14" rx="2" ry="2" width="14" x="920" y="202"/>
<rect fill="#113426" height="14" rx="2" ry="2" width="14" x="937" y="100"/>
<rect fill="#113426" height="14" rx="2" ry="2" width="14" x="937" y="117"/>
<rect fill="#113426" height="14" rx="2" ry="2" width="14" x="937" y="134"/>
<rect fill="#161b22" height="14" rx="2" ry="2" width="14" x="937" y="151"/>
<rect fill="#07592e" height="14" rx="2" ry="2" width="14" x="937" y="168"/>
<rect fill="#055f2f" height="14" rx="2" ry="2" width="14" x="937" y="185"/>
<rect fill="#29ae44" height="14" rx="2" ry="2" width="14" x="937" y="202"/>
<rect fill="#055f2f" height="14" rx="2" ry="2" width="14" x="954" y="100"/>
<rect fill="#113426" height="14" rx="2" ry="2" width="14" x="954" y="117"/>
<rect fill="#113426" height="14" rx="2" ry="2" width="14" x="954" y="134"/>
<rect fill="#113426" height="14" rx="2" ry="2" width="14" x="954" y="151"/>
<rect fill="#113426" height="14" rx="2" ry="2" width="14" x="954" y="168"/>
<rect fill="#0f3d28" height="14" rx="2" ry="2" width="14" x="954" y="185"/>
<rect fill="#161b22" height="14" rx="2" ry="2" width="14" x="954" y="202"/>
<text fill="#6e7681" font-size="9" x="40" y="243">
Less
</text>
<rect fill="#161b22" height="14" rx="2" ry="2" width="14" x="72" y="233"/>
<rect fill="#0e4429" height="14" rx="2" ry="2" width="14" x="88" y="233"/>
<rect fill="#006d32" height="14" rx="2" ry="2" width="14" x="104" y="233"/>
<rect fill="#26a641" height="14" rx="2" ry="2" width="14" x="120" y="233"/>
<rect fill="#39d353" height="14" rx="2" ry="2" width="14" x="136" y="233"/>
<text fill="#6e7681" font-size="9" x="156" y="243">
More
</text>
</svg>