<svg width="1956" height="415" viewBox="0 0 1956 415" xmlns="http://www.w3.org/2000/svg"><title>logo-light 2</title><g fill="none" fill-rule="evenodd"><path d="M414.876 172.76h26.3v10.52c5.064-5.3 9.388-8.884 12.973-10.754 3.814-1.95 8.61-2.923 14.372-2.923 12.858 0 23.026 5.61 30.507 16.832 8.26-11.22 19.442-16.832 33.546-16.832 25.636 0 38.454 15.546 38.454 46.637v70.364h-26.413V223.37c0-10.91-1.325-18.623-3.974-23.143-2.728-4.597-7.208-6.896-13.442-6.896-7.244 0-12.523 2.73-15.835 8.186-3.31 5.454-4.967 14.22-4.967 26.3v58.79H479.98v-62.882c0-20.26-5.844-30.39-17.533-30.39-7.402 0-12.798 2.767-16.188 8.3-3.39 5.532-5.088 14.26-5.088 26.182v58.792h-26.3V172.76h.002zm293.027 63.117h-81.585c.702 9.35 3.74 16.792 9.117 22.324 5.377 5.46 12.273 8.186 20.69 8.186 6.544 0 11.96-1.558 16.246-4.675 4.21-3.117 9-8.883 14.38-17.3l22.208 12.39c-3.43 5.845-7.052 10.85-10.87 15.02-3.818 4.17-7.91 7.598-12.273 10.286-4.364 2.688-9.078 4.656-14.143 5.903-5.065 1.245-10.56 1.87-16.48 1.87-16.99 0-30.624-5.456-40.91-16.365-10.285-10.987-15.43-25.558-15.43-43.714 0-18 4.99-32.572 14.963-43.715 10.052-10.987 23.376-16.48 39.974-16.48 16.752 0 30 5.337 39.74 16.013 9.662 10.597 14.493 25.285 14.493 44.065l-.116 6.195zm-27-21.507c-3.662-14.026-12.506-21.04-26.533-21.04-3.194 0-6.194.488-9 1.462-2.805.974-5.357 2.377-7.656 4.208-2.298 1.83-4.266 4.032-5.902 6.604-1.637 2.57-2.883 5.493-3.74 8.766h52.83zM846.995 89.187v197.417H820.58v-11.922c-10.365 10.13-22.092 15.195-35.183 15.195-15.585 0-28.52-5.69-38.805-17.065-10.208-11.61-15.312-26.104-15.312-43.48 0-16.988 5.104-31.17 15.312-42.547 10.13-11.454 22.87-17.182 38.22-17.182 13.325 0 25.247 5.455 35.767 16.364v-96.78h26.413zM758.162 229.33c0 10.91 2.922 19.793 8.766 26.65 6 6.936 13.558 10.403 22.675 10.403 9.74 0 17.61-3.35 23.61-10.052 6-6.93 9-15.74 9-26.412 0-10.675-3-19.48-9-26.415-6-6.78-13.792-10.17-23.376-10.17-9.04 0-16.6 3.43-22.677 10.288-6 6.936-9 15.507-9 25.715l.002-.002zm148.325-56.57v113.844H880.19V172.76h26.298zm-30.272-47.34c0-4.596 1.675-8.57 5.026-11.92 3.35-3.35 7.366-5.027 12.04-5.027 4.755 0 8.807 1.676 12.158 5.026 3.35 3.27 5.026 7.282 5.026 12.035 0 4.754-1.676 8.806-5.026 12.156-3.273 3.35-7.286 5.027-12.04 5.027-4.753 0-8.805-1.676-12.155-5.027-3.35-3.35-5.025-7.44-5.025-12.272zm147.507 47.34h26.416v113.844h-26.417v-11.922c-10.83 10.13-22.48 15.195-34.945 15.195-15.74 0-28.754-5.69-39.04-17.065-10.207-11.61-15.31-26.104-15.31-43.48 0-17.066 5.103-31.287 15.31-42.664 10.208-11.376 22.987-17.065 38.338-17.065 13.248 0 25.13 5.455 35.65 16.364V172.76h.002zm-62.416 56.57c0 10.91 2.922 19.793 8.766 26.65 6 6.936 13.56 10.403 22.676 10.403 9.74 0 17.61-3.35 23.61-10.052 6-6.93 9-15.74 9-26.412 0-10.675-3-19.48-9-26.415-6-6.78-13.793-10.17-23.378-10.17-9.04 0-16.597 3.43-22.675 10.288-6 6.936-9 15.507-9 25.715v-.002zm105.43-12.038h52.13v22.91h-52.13v-22.91zm178.83 66.624c0 5.376-.174 10.11-.525 14.2-.35 4.092-.835 7.696-1.46 10.813-1.87 8.57-5.53 15.93-10.985 22.09-10.286 11.84-24.43 17.763-42.43 17.763-15.194 0-27.7-4.09-37.518-12.273-10.13-8.414-15.975-20.064-17.533-34.947h26.416c1.01 5.61 2.686 9.935 5.024 12.974 5.454 7.09 13.402 10.636 23.844 10.636 19.246 0 28.87-11.805 28.87-35.416V273.86c-10.442 10.676-22.48 16.014-36.118 16.014-15.507 0-28.21-5.61-38.105-16.83-9.974-11.378-14.96-25.6-14.96-42.664 0-16.597 4.635-30.7 13.908-42.31 9.974-12.31 23.143-18.468 39.507-18.468 14.338 0 26.26 5.338 35.766 16.014V172.76h26.298v111.156h.002zm-25.246-54c0-11.066-2.96-19.91-8.882-26.533-6-6.78-13.675-10.17-23.026-10.17-9.974 0-17.844 3.702-23.61 11.105-5.22 6.623-7.832 15.195-7.832 25.714 0 10.364 2.61 18.858 7.83 25.48 5.69 7.248 13.56 10.87 23.612 10.87 10.052 0 18-3.66 23.844-10.986 5.377-6.623 8.065-15.117 8.065-25.48zm84.742-140.73v197.418h-26.3V89.188h26.3v-.002zm117.234 83.573h26.416V286.6h-26.416v-11.92c-10.83 10.13-22.48 15.196-34.948 15.196-15.74 0-28.753-5.69-39.04-17.065-10.207-11.61-15.31-26.1-15.31-43.48 0-17.063 5.103-31.284 15.31-42.66 10.21-11.377 22.988-17.066 38.34-17.066 13.245 0 25.13 5.455 35.648 16.364V172.76zm-62.416 56.57c0 10.91 2.922 19.79 8.767 26.65 6 6.933 13.558 10.4 22.675 10.4 9.74 0 17.61-3.35 23.61-10.05 6-6.936 9-15.74 9-26.417 0-10.675-3-19.48-9-26.415-6-6.78-13.792-10.17-23.376-10.17-9.04 0-16.598 3.43-22.676 10.286-6 6.935-9 15.506-9 25.714zm188.183-37.17l-21.74 11.57c-3.43-7.01-7.676-10.52-12.74-10.52-2.416 0-4.48.8-6.196 2.397-1.714 1.597-2.57 3.642-2.57 6.135 0 4.364 5.064 8.69 15.194 12.975 13.95 6 23.34 11.533 28.17 16.598 4.83 5.065 7.25 11.883 7.25 20.455 0 10.988-4.052 20.183-12.156 27.585-7.87 7.013-17.376 10.52-28.52 10.52-19.09 0-32.61-9.312-40.558-27.935l22.442-10.403c3.117 5.453 5.494 8.92 7.13 10.4 3.195 2.96 7.013 4.44 11.455 4.44 8.883 0 13.324-4.05 13.324-12.154 0-4.675-3.428-9.04-10.285-13.09-2.65-1.325-5.3-2.61-7.95-3.858-2.65-1.248-5.336-2.533-8.063-3.858-7.638-3.74-13.014-7.48-16.13-11.22-3.975-4.754-5.96-10.87-5.96-18.352 0-9.896 3.387-18.078 10.166-24.545 6.936-6.468 15.35-9.702 25.247-9.702 14.57 0 25.403 7.52 32.494 22.56zm97.13 0l-21.74 11.57c-3.43-7.01-7.675-10.52-12.74-10.52-2.416 0-4.48.8-6.195 2.397-1.715 1.597-2.572 3.642-2.572 6.135 0 4.364 5.065 8.69 15.195 12.975 13.95 6 23.34 11.533 28.17 16.598 4.83 5.065 7.25 11.883 7.25 20.455 0 10.988-4.052 20.183-12.156 27.585-7.87 7.013-17.376 10.52-28.52 10.52-19.09 0-32.61-9.312-40.557-27.935l22.44-10.403c3.118 5.453 5.495 8.92 7.13 10.4 3.196 2.96 7.014 4.44 11.456 4.44 8.883 0 13.325-4.05 13.325-12.154 0-4.675-3.43-9.04-10.286-13.09-2.65-1.325-5.3-2.61-7.95-3.858-2.65-1.248-5.336-2.533-8.063-3.858-7.638-3.74-13.014-7.48-16.13-11.22-3.975-4.754-5.96-10.87-5.96-18.352 0-9.896 3.387-18.078 10.167-24.545 6.935-6.468 15.35-9.702 25.247-9.702 14.57 0 25.403 7.52 32.494 22.56zm35.065 81.35c0-4.364 1.598-8.14 4.793-11.338 3.198-3.195 7.017-4.792 11.458-4.792 4.442 0 8.26 1.598 11.455 4.793 3.196 3.195 4.793 7.013 4.793 11.455 0 4.52-1.597 8.376-4.792 11.57-3.116 3.117-6.934 4.676-11.454 4.676-4.598 0-8.455-1.56-11.57-4.676-3.12-3.115-4.678-7.012-4.678-11.687h-.002zm173.456-37.636h-81.585c.7 9.35 3.74 16.792 9.113 22.324 5.377 5.455 12.273 8.182 20.688 8.182 6.547 0 11.96-1.558 16.248-4.675 4.21-3.117 9-8.883 14.377-17.3l22.208 12.39c-3.43 5.845-7.052 10.85-10.87 15.02-3.82 4.17-7.91 7.598-12.273 10.286-4.364 2.69-9.078 4.657-14.143 5.904-5.066 1.246-10.56 1.87-16.48 1.87-16.99 0-30.625-5.455-40.91-16.364-10.287-10.987-15.43-25.558-15.43-43.714 0-18.003 4.987-32.574 14.96-43.717 10.053-10.987 23.378-16.48 39.976-16.48 16.753 0 30 5.337 39.74 16.013 9.663 10.597 14.494 25.285 14.494 44.065l-.115 6.195zm-27-21.507c-3.663-14.027-12.507-21.04-26.533-21.04-3.19 0-6.19.487-9 1.46-2.8.975-5.353 2.378-7.652 4.21-2.3 1.83-4.266 4.03-5.903 6.603-1.636 2.57-2.883 5.494-3.74 8.767h52.832zm121.91-22.21l-21.74 11.57c-3.43-7.01-7.676-10.517-12.74-10.517-2.417 0-4.482.8-6.196 2.397-1.715 1.597-2.572 3.642-2.572 6.135 0 4.364 5.065 8.69 15.195 12.975 13.95 6 23.34 11.533 28.17 16.598 4.83 5.065 7.25 11.883 7.25 20.455 0 10.987-4.052 20.182-12.156 27.584-7.87 7.013-17.376 10.52-28.52 10.52-19.09 0-32.61-9.312-40.557-27.935l22.44-10.405c3.118 5.453 5.495 8.92 7.13 10.4 3.196 2.96 7.014 4.44 11.456 4.44 8.883 0 13.325-4.05 13.325-12.154 0-4.674-3.43-9.04-10.286-13.09-2.65-1.324-5.3-2.61-7.95-3.857-2.65-1.248-5.336-2.533-8.063-3.858-7.638-3.74-13.014-7.48-16.13-11.22-3.975-4.754-5.96-10.87-5.96-18.352 0-9.896 3.387-18.078 10.167-24.545 6.935-6.47 15.35-9.703 25.247-9.703 14.57 0 25.403 7.52 32.494 22.56z" fill="#2C3E50"/><path d="M411.876 169.76h26.3v10.52c5.064-5.3 9.388-8.884 12.973-10.754 3.814-1.95 8.61-2.923 14.372-2.923 12.858 0 23.026 5.61 30.507 16.832 8.26-11.22 19.442-16.832 33.546-16.832 25.636 0 38.454 15.546 38.454 46.637v70.364h-26.413V220.37c0-10.91-1.325-18.623-3.974-23.143-2.728-4.597-7.208-6.896-13.442-6.896-7.244 0-12.523 2.73-15.835 8.186-3.31 5.454-4.967 14.22-4.967 26.3v58.79H476.98v-62.882c0-20.26-5.844-30.39-17.533-30.39-7.402 0-12.798 2.767-16.188 8.3-3.39 5.532-5.088 14.26-5.088 26.182v58.792h-26.3V169.76h.002zm293.027 63.117h-81.585c.702 9.35 3.74 16.792 9.117 22.324 5.377 5.46 12.273 8.186 20.69 8.186 6.544 0 11.96-1.558 16.246-4.675 4.21-3.117 9-8.883 14.38-17.3l22.208 12.39c-3.43 5.845-7.052 10.85-10.87 15.02-3.818 4.17-7.91 7.598-12.273 10.286-4.364 2.688-9.078 4.656-14.143 5.903-5.065 1.245-10.56 1.87-16.48 1.87-16.99 0-30.624-5.456-40.91-16.365-10.285-10.987-15.43-25.558-15.43-43.714 0-18 4.99-32.572 14.963-43.715 10.052-10.987 23.376-16.48 39.974-16.48 16.752 0 30 5.337 39.74 16.013 9.662 10.597 14.493 25.285 14.493 44.065l-.116 6.195zm-27-21.507c-3.662-14.026-12.506-21.04-26.533-21.04-3.194 0-6.194.488-9 1.462-2.805.974-5.357 2.377-7.656 4.208-2.298 1.83-4.266 4.032-5.902 6.604-1.637 2.57-2.883 5.493-3.74 8.766h52.83zM843.995 86.187v197.417H817.58v-11.922c-10.365 10.13-22.092 15.195-35.183 15.195-15.585 0-28.52-5.69-38.805-17.065-10.208-11.61-15.312-26.104-15.312-43.48 0-16.988 5.104-31.17 15.312-42.547 10.13-11.454 22.87-17.182 38.22-17.182 13.325 0 25.247 5.455 35.767 16.364v-96.78h26.413zM755.162 226.33c0 10.91 2.922 19.793 8.766 26.65 6 6.936 13.558 10.403 22.675 10.403 9.74 0 17.61-3.35 23.61-10.052 6-6.93 9-15.74 9-26.412 0-10.675-3-19.48-9-26.415-6-6.78-13.792-10.17-23.376-10.17-9.04 0-16.6 3.43-22.677 10.288-6 6.936-9 15.507-9 25.715l.002-.002zm148.325-56.57v113.844H877.19V169.76h26.298zm-30.272-47.34c0-4.596 1.675-8.57 5.026-11.92 3.35-3.35 7.366-5.027 12.04-5.027 4.755 0 8.807 1.676 12.158 5.026 3.35 3.27 5.026 7.282 5.026 12.035 0 4.754-1.676 8.806-5.026 12.156-3.273 3.35-7.286 5.027-12.04 5.027-4.753 0-8.805-1.676-12.155-5.027-3.35-3.35-5.025-7.44-5.025-12.272zm147.507 47.34h26.416v113.844h-26.417v-11.922c-10.83 10.13-22.48 15.195-34.945 15.195-15.74 0-28.754-5.69-39.04-17.065-10.207-11.61-15.31-26.104-15.31-43.48 0-17.066 5.103-31.287 15.31-42.664 10.208-11.376 22.987-17.065 38.338-17.065 13.248 0 25.13 5.455 35.65 16.364V169.76h.002zm-62.416 56.57c0 10.91 2.922 19.793 8.766 26.65 6 6.936 13.56 10.403 22.676 10.403 9.74 0 17.61-3.35 23.61-10.052 6-6.93 9-15.74 9-26.412 0-10.675-3-19.48-9-26.415-6-6.78-13.793-10.17-23.378-10.17-9.04 0-16.597 3.43-22.675 10.288-6 6.936-9 15.507-9 25.715v-.002zm105.43-12.038h52.13v22.91h-52.13v-22.91zm178.83 66.624c0 5.376-.174 10.11-.525 14.2-.35 4.092-.835 7.696-1.46 10.813-1.87 8.57-5.53 15.93-10.985 22.09-10.286 11.84-24.43 17.763-42.43 17.763-15.194 0-27.7-4.09-37.518-12.273-10.13-8.414-15.975-20.064-17.533-34.947h26.416c1.01 5.61 2.686 9.935 5.024 12.974 5.454 7.09 13.402 10.636 23.844 10.636 19.246 0 28.87-11.805 28.87-35.416V270.86c-10.442 10.676-22.48 16.014-36.118 16.014-15.507 0-28.21-5.61-38.105-16.83-9.974-11.378-14.96-25.6-14.96-42.664 0-16.597 4.635-30.7 13.908-42.31 9.974-12.31 23.143-18.468 39.507-18.468 14.338 0 26.26 5.338 35.766 16.014V169.76h26.298v111.156h.002zm-25.246-54c0-11.066-2.96-19.91-8.882-26.533-6-6.78-13.675-10.17-23.026-10.17-9.974 0-17.844 3.702-23.61 11.105-5.22 6.623-7.832 15.195-7.832 25.714 0 10.364 2.61 18.858 7.83 25.48 5.69 7.248 13.56 10.87 23.612 10.87 10.052 0 18-3.66 23.844-10.986 5.377-6.623 8.065-15.117 8.065-25.48zm84.742-140.73v197.418h-26.3V86.188h26.3v-.002zm117.234 83.573h26.416V283.6h-26.416v-11.92c-10.83 10.13-22.48 15.196-34.948 15.196-15.74 0-28.753-5.69-39.04-17.065-10.207-11.61-15.31-26.1-15.31-43.48 0-17.063 5.103-31.284 15.31-42.66 10.21-11.377 22.988-17.066 38.34-17.066 13.245 0 25.13 5.455 35.648 16.364V169.76zm-62.416 56.57c0 10.91 2.922 19.79 8.767 26.65 6 6.933 13.558 10.4 22.675 10.4 9.74 0 17.61-3.35 23.61-10.05 6-6.936 9-15.74 9-26.417 0-10.675-3-19.48-9-26.415-6-6.78-13.792-10.17-23.376-10.17-9.04 0-16.598 3.43-22.676 10.286-6 6.935-9 15.506-9 25.714zm188.183-37.17l-21.74 11.57c-3.43-7.01-7.676-10.52-12.74-10.52-2.416 0-4.48.8-6.196 2.397-1.714 1.597-2.57 3.642-2.57 6.135 0 4.364 5.064 8.69 15.194 12.975 13.95 6 23.34 11.533 28.17 16.598 4.83 5.065 7.25 11.883 7.25 20.455 0 10.988-4.052 20.183-12.156 27.585-7.87 7.013-17.376 10.52-28.52 10.52-19.09 0-32.61-9.312-40.558-27.935l22.442-10.403c3.117 5.453 5.494 8.92 7.13 10.4 3.195 2.96 7.013 4.44 11.455 4.44 8.883 0 13.324-4.05 13.324-12.154 0-4.675-3.428-9.04-10.285-13.09-2.65-1.325-5.3-2.61-7.95-3.858-2.65-1.248-5.336-2.533-8.063-3.858-7.638-3.74-13.014-7.48-16.13-11.22-3.975-4.754-5.96-10.87-5.96-18.352 0-9.896 3.387-18.078 10.166-24.545 6.936-6.468 15.35-9.702 25.247-9.702 14.57 0 25.403 7.52 32.494 22.56zm97.13 0l-21.74 11.57c-3.43-7.01-7.675-10.52-12.74-10.52-2.416 0-4.48.8-6.195 2.397-1.715 1.597-2.572 3.642-2.572 6.135 0 4.364 5.065 8.69 15.195 12.975 13.95 6 23.34 11.533 28.17 16.598 4.83 5.065 7.25 11.883 7.25 20.455 0 10.988-4.052 20.183-12.156 27.585-7.87 7.013-17.376 10.52-28.52 10.52-19.09 0-32.61-9.312-40.557-27.935l22.44-10.403c3.118 5.453 5.495 8.92 7.13 10.4 3.196 2.96 7.014 4.44 11.456 4.44 8.883 0 13.325-4.05 13.325-12.154 0-4.675-3.43-9.04-10.286-13.09-2.65-1.325-5.3-2.61-7.95-3.858-2.65-1.248-5.336-2.533-8.063-3.858-7.638-3.74-13.014-7.48-16.13-11.22-3.975-4.754-5.96-10.87-5.96-18.352 0-9.896 3.387-18.078 10.167-24.545 6.935-6.468 15.35-9.702 25.247-9.702 14.57 0 25.403 7.52 32.494 22.56zm35.065 81.35c0-4.364 1.598-8.14 4.793-11.338 3.198-3.195 7.017-4.792 11.458-4.792 4.442 0 8.26 1.598 11.455 4.793 3.196 3.195 4.793 7.013 4.793 11.455 0 4.52-1.597 8.376-4.792 11.57-3.116 3.117-6.934 4.676-11.454 4.676-4.598 0-8.455-1.56-11.57-4.676-3.12-3.115-4.678-7.012-4.678-11.687h-.002zm173.456-37.636h-81.585c.7 9.35 3.74 16.792 9.113 22.324 5.377 5.455 12.273 8.182 20.688 8.182 6.547 0 11.96-1.558 16.248-4.675 4.21-3.117 9-8.883 14.377-17.3l22.208 12.39c-3.43 5.845-7.052 10.85-10.87 15.02-3.82 4.17-7.91 7.598-12.273 10.286-4.364 2.69-9.078 4.657-14.143 5.904-5.066 1.246-10.56 1.87-16.48 1.87-16.99 0-30.625-5.455-40.91-16.364-10.287-10.987-15.43-25.558-15.43-43.714 0-18.003 4.987-32.574 14.96-43.717 10.053-10.987 23.378-16.48 39.976-16.48 16.753 0 30 5.337 39.74 16.013 9.663 10.597 14.494 25.285 14.494 44.065l-.115 6.195zm-27-21.507c-3.663-14.027-12.507-21.04-26.533-21.04-3.19 0-6.19.487-9 1.46-2.8.975-5.353 2.378-7.652 4.21-2.3 1.83-4.266 4.03-5.903 6.603-1.636 2.57-2.883 5.494-3.74 8.767h52.832zm121.91-22.21l-21.74 11.57c-3.43-7.01-7.676-10.517-12.74-10.517-2.417 0-4.482.8-6.196 2.397-1.715 1.597-2.572 3.642-2.572 6.135 0 4.364 5.065 8.69 15.195 12.975 13.95 6 23.34 11.533 28.17 16.598 4.83 5.065 7.25 11.883 7.25 20.455 0 10.987-4.052 20.182-12.156 27.584-7.87 7.013-17.376 10.52-28.52 10.52-19.09 0-32.61-9.312-40.557-27.935l22.44-10.405c3.118 5.453 5.495 8.92 7.13 10.4 3.196 2.96 7.014 4.44 11.456 4.44 8.883 0 13.325-4.05 13.325-12.154 0-4.674-3.43-9.04-10.286-13.09-2.65-1.324-5.3-2.61-7.95-3.857-2.65-1.248-5.336-2.533-8.063-3.858-7.638-3.74-13.014-7.48-16.13-11.22-3.975-4.754-5.96-10.87-5.96-18.352 0-9.896 3.387-18.078 10.167-24.545 6.935-6.47 15.35-9.703 25.247-9.703 14.57 0 25.403 7.52 32.494 22.56z" fill="#FFF"/><path d="M419.707 348.847h-145.52v52.916h19.844c3.655 0 6.62 2.96 6.62 6.615 0 3.65-2.965 6.614-6.616 6.614h-145.52c-3.65 0-6.614-2.96-6.614-6.614 0-3.652 2.96-6.615 6.613-6.615h19.843v-52.916H22.836C10.663 348.847.79 338.974.79 326.8v-39.69h440.965v39.69c0 12.174-9.873 22.047-22.048 22.047z" fill="#BDC3C7"/><path d="M168.356 348.847h105.832v8.82H168.356v-8.82z" fill="#95A5A5"/><path d="M22.837.484h396.87c12.175 0 22.048 9.874 22.048 22.05V287.11H.79V22.532C.79 10.36 10.66.485 22.836.485z" fill="#2C3E50"/><path d="M22.837 22.533h396.87v242.53H22.837V22.533zM230.09 317.98c0 4.87-3.947 8.82-8.818 8.82-4.87 0-8.82-3.95-8.82-8.82s3.95-8.82 8.82-8.82 8.82 3.95 8.82 8.82h-.002z" fill="#35495E"/><path d="M341.47 89.326c-32.724.207-64.258 9.87-96.377 13.732-13.406 1.613-27.223 2.008-40.65.51-17.854-1.995-35.14-7.29-52.98-9.664-15.946-2.12-32.09-4.336-48.136-4.425-28.04-.16-55.16 8.133-82.647 12.61 0 7.595-1.634 17.343 2.476 22.682 4.24 5.506 11.39 10.542 13.245 18.003 4.4 17.696 10.65 35.043 18.63 51.673 3.88 8.08 11.208 13.715 19.387 17.597 19.694 9.346 43.004 10.72 64.61 7.78 30.768-4.185 47.46-25.992 60.195-50.908 4.767-10.13 5.3-21.82 11.576-31.076 3.73-5.497 12.388-3.183 18.576-3.203 6.19-.02 11.434 9.704 13.355 16.175 6.795 22.902 18.127 47.2 40.65 59.2 33.632 17.92 86.616 14.567 108.437-17.75 8.54-12.648 10.9-27.994 15.183-42.314 2.61-8.716 4.94-19.11 14.215-23.902 3.744-1.934 1.117-9.652 1.67-14.138.6-4.89 1.763-9.213-5.6-10.173-12.842-1.675-25.3-6.77-38.443-8.493-12.455-1.634-24.66-3.997-37.366-3.917zm-216.337 8.138c9.29-.056 18.538.586 27.567 2.39 53.794 10.748 54.88 31.683 32.736 74.965-18.046 35.265-55.426 44.102-93.093 35.65-17.363-3.9-29.236-15.348-34.836-31.026-5.91-16.547-10.38-34.128-9.368-51.52 1.35-23.29 29.24-26.562 49.21-28.683 9.16-.973 18.49-1.723 27.78-1.78zm196.415 0c9.29.056 18.62.806 27.783 1.78 19.97 2.12 47.86 5.394 49.215 28.684 1.012 17.39-3.458 34.972-9.368 51.52-5.6 15.677-17.473 27.126-34.836 31.023-37.666 8.458-75.05-.38-93.093-35.65-22.145-43.28-21.058-64.215 32.736-74.963 9.03-1.804 18.28-2.446 27.568-2.39z" fill="#2B3E51"/><path d="M341.47 89.326c-32.724.207-64.258 9.87-96.377 13.732-13.406 1.613-27.223 2.008-40.65.51-17.854-1.995-35.14-7.29-52.98-9.664-15.946-2.12-32.09-4.336-48.136-4.425-28.04-.16-55.16 8.133-82.647 12.61 0 7.595-1.634 17.343 2.476 22.682 4.24 5.506 11.39 10.542 13.245 18.003 4.4 17.696 10.65 35.043 18.63 51.673 3.88 8.08 11.208 13.715 19.387 17.597 19.694 9.346 43.004 10.72 64.61 7.78 30.768-4.185 47.46-25.992 60.195-50.908 4.767-10.13 5.3-21.82 11.576-31.076 3.73-5.497 12.388-3.183 18.576-3.203 6.19-.02 11.434 9.704 13.355 16.175 6.795 22.902 18.127 47.2 40.65 59.2 33.632 17.92 86.616 14.567 108.437-17.75 8.54-12.648 10.9-27.994 15.183-42.314 2.61-8.716 4.94-19.11 14.215-23.902 3.744-1.934 1.117-9.652 1.67-14.138.6-4.89 1.763-9.213-5.6-10.173-12.842-1.675-25.3-6.77-38.443-8.493-12.455-1.634-24.66-3.997-37.366-3.917zm-216.337 8.138c9.29-.056 18.538.586 27.567 2.39 53.794 10.748 54.88 31.683 32.736 74.965-18.046 35.265-55.426 44.102-93.093 35.65-17.363-3.9-29.236-15.348-34.836-31.026-5.91-16.547-10.38-34.128-9.368-51.52 1.35-23.29 29.24-26.562 49.21-28.683 9.16-.973 18.49-1.723 27.78-1.78zm196.415 0c9.29.056 18.62.806 27.783 1.78 19.97 2.12 47.86 5.394 49.215 28.684 1.012 17.39-3.458 34.972-9.368 51.52-5.6 15.677-17.473 27.126-34.836 31.023-37.666 8.458-75.05-.38-93.093-35.65-22.145-43.28-21.058-64.215 32.736-74.963 9.03-1.804 18.28-2.446 27.568-2.39z" stroke="#2B3E51"/></g></svg>